<svg width="200" height="1100" viewBox="0 0 200 1100" fill="none" xmlns="http://www.w3.org/2000/svg">
<g clip-path="url(#clip0_1_2)">
<rect width="200" height="1100" rx="30" fill="#111827"/>
<line y1="46" x2="200" y2="46" stroke="#1F2937" stroke-width="2"/>
<path d="M3.97159 34.2727V43H2.91477V35.3807H2.86364L0.732955 36.7955V35.7216L2.91477 34.2727H3.97159ZM9.54972 34.2727V43H8.4929V35.3807H8.44176L6.31108 36.7955V35.7216L8.4929 34.2727H9.54972ZM12.8097 41.8835C12.5994 41.8835 12.419 41.8082 12.2685 41.6577C12.1179 41.5071 12.0426 41.3267 12.0426 41.1165C12.0426 40.9062 12.1179 40.7259 12.2685 40.5753C12.419 40.4247 12.5994 40.3494 12.8097 40.3494C13.0199 40.3494 13.2003 40.4247 13.3509 40.5753C13.5014 40.7259 13.5767 40.9062 13.5767 41.1165C13.5767 41.2557 13.5412 41.3835 13.4702 41.5C13.402 41.6165 13.3097 41.7102 13.1932 41.7812C13.0795 41.8494 12.9517 41.8835 12.8097 41.8835ZM12.8097 37.4688C12.5994 37.4688 12.419 37.3935 12.2685 37.2429C12.1179 37.0923 12.0426 36.9119 12.0426 36.7017C12.0426 36.4915 12.1179 36.3111 12.2685 36.1605C12.419 36.0099 12.5994 35.9347 12.8097 35.9347C13.0199 35.9347 13.2003 36.0099 13.3509 36.1605C13.5014 36.3111 13.5767 36.4915 13.5767 36.7017C13.5767 36.8409 13.5412 36.9688 13.4702 37.0852C13.402 37.2017 13.3097 37.2955 13.1932 37.3665C13.0795 37.4347 12.9517 37.4688 12.8097 37.4688ZM18.2109 43.1193C17.5689 43.1193 17.022 42.9446 16.5703 42.5952C16.1186 42.2429 15.7734 41.733 15.5348 41.0653C15.2962 40.3949 15.1768 39.5852 15.1768 38.6364C15.1768 37.6932 15.2962 36.8878 15.5348 36.2202C15.7763 35.5497 16.1229 35.0384 16.5746 34.6861C17.0291 34.331 17.5746 34.1534 18.2109 34.1534C18.8473 34.1534 19.3913 34.331 19.843 34.6861C20.2976 35.0384 20.6442 35.5497 20.8828 36.2202C21.1243 36.8878 21.245 37.6932 21.245 38.6364C21.245 39.5852 21.1257 40.3949 20.8871 41.0653C20.6484 41.733 20.3033 42.2429 19.8516 42.5952C19.3999 42.9446 18.853 43.1193 18.2109 43.1193ZM18.2109 42.1818C18.8473 42.1818 19.3416 41.875 19.6939 41.2614C20.0462 40.6477 20.2223 39.7727 20.2223 38.6364C20.2223 37.8807 20.1413 37.2372 19.9794 36.706C19.8203 36.1747 19.5902 35.7699 19.2891 35.4915C18.9908 35.2131 18.6314 35.0739 18.2109 35.0739C17.5803 35.0739 17.0874 35.3849 16.7322 36.0071C16.3771 36.6264 16.1996 37.5028 16.1996 38.6364C16.1996 39.392 16.2791 40.0341 16.4382 40.5625C16.5973 41.0909 16.826 41.4929 17.1243 41.7685C17.4254 42.044 17.7876 42.1818 18.2109 42.1818ZM25.7109 43.1193C25.0689 43.1193 24.522 42.9446 24.0703 42.5952C23.6186 42.2429 23.2734 41.733 23.0348 41.0653C22.7962 40.3949 22.6768 39.5852 22.6768 38.6364C22.6768 37.6932 22.7962 36.8878 23.0348 36.2202C23.2763 35.5497 23.6229 35.0384 24.0746 34.6861C24.5291 34.331 25.0746 34.1534 25.7109 34.1534C26.3473 34.1534 26.8913 34.331 27.343 34.6861C27.7976 35.0384 28.1442 35.5497 28.3828 36.2202C28.6243 36.8878 28.745 37.6932 28.745 38.6364C28.745 39.5852 28.6257 40.3949 28.3871 41.0653C28.1484 41.733 27.8033 42.2429 27.3516 42.5952C26.8999 42.9446 26.353 43.1193 25.7109 43.1193ZM25.7109 42.1818C26.3473 42.1818 26.8416 41.875 27.1939 41.2614C27.5462 40.6477 27.7223 39.7727 27.7223 38.6364C27.7223 37.8807 27.6413 37.2372 27.4794 36.706C27.3203 36.1747 27.0902 35.7699 26.7891 35.4915C26.4908 35.2131 26.1314 35.0739 25.7109 35.0739C25.0803 35.0739 24.5874 35.3849 24.2322 36.0071C23.8771 36.6264 23.6996 37.5028 23.6996 38.6364C23.6996 39.392 23.7791 40.0341 23.9382 40.5625C24.0973 41.0909 24.326 41.4929 24.6243 41.7685C24.9254 42.044 25.2876 42.1818 25.7109 42.1818Z" fill="#9CA3AF"/>
<line y1="137.727" x2="200" y2="137.727" stroke="#1F2937" stroke-width="2"/>
<path d="M3.97159 126V134.727H2.91477V127.108H2.86364L0.732955 128.523V127.449L2.91477 126H3.97159ZM6.48153 134.727V133.96L9.36222 130.807C9.70028 130.437 9.97869 130.116 10.1974 129.844C10.4162 129.568 10.5781 129.31 10.6832 129.068C10.7912 128.824 10.8452 128.568 10.8452 128.301C10.8452 127.994 10.7713 127.729 10.6236 127.504C10.4787 127.28 10.2798 127.107 10.027 126.984C9.77415 126.862 9.49006 126.801 9.17472 126.801C8.83949 126.801 8.54688 126.871 8.29688 127.01C8.04972 127.146 7.85795 127.338 7.72159 127.585C7.58807 127.832 7.52131 128.122 7.52131 128.455H6.51562C6.51562 127.943 6.63352 127.494 6.86932 127.108C7.10511 126.722 7.42614 126.42 7.83239 126.205C8.24148 125.989 8.70028 125.881 9.20881 125.881C9.72017 125.881 10.1733 125.989 10.5682 126.205C10.9631 126.42 11.2727 126.712 11.4972 127.078C11.7216 127.445 11.8338 127.852 11.8338 128.301C11.8338 128.622 11.7756 128.936 11.6591 129.243C11.5455 129.547 11.3466 129.886 11.0625 130.261C10.7812 130.634 10.3906 131.088 9.89062 131.625L7.9304 133.722V133.79H11.9872V134.727H6.48153ZM14.4972 133.611C14.2869 133.611 14.1065 133.536 13.956 133.385C13.8054 133.234 13.7301 133.054 13.7301 132.844C13.7301 132.634 13.8054 132.453 13.956 132.303C14.1065 132.152 14.2869 132.077 14.4972 132.077C14.7074 132.077 14.8878 132.152 15.0384 132.303C15.1889 132.453 15.2642 132.634 15.2642 132.844C15.2642 132.983 15.2287 133.111 15.1577 133.227C15.0895 133.344 14.9972 133.437 14.8807 133.509C14.767 133.577 14.6392 133.611 14.4972 133.611ZM14.4972 129.196C14.2869 129.196 14.1065 129.121 13.956 128.97C13.8054 128.82 13.7301 128.639 13.7301 128.429C13.7301 128.219 13.8054 128.038 13.956 127.888C14.1065 127.737 14.2869 127.662 14.4972 127.662C14.7074 127.662 14.8878 127.737 15.0384 127.888C15.1889 128.038 15.2642 128.219 15.2642 128.429C15.2642 128.568 15.2287 128.696 15.1577 128.812C15.0895 128.929 14.9972 129.023 14.8807 129.094C14.767 129.162 14.6392 129.196 14.4972 129.196ZM19.8984 134.847C19.2564 134.847 18.7095 134.672 18.2578 134.322C17.8061 133.97 17.4609 133.46 17.2223 132.793C16.9837 132.122 16.8643 131.312 16.8643 130.364C16.8643 129.42 16.9837 128.615 17.2223 127.947C17.4638 127.277 17.8104 126.766 18.2621 126.413C18.7166 126.058 19.2621 125.881 19.8984 125.881C20.5348 125.881 21.0788 126.058 21.5305 126.413C21.9851 126.766 22.3317 127.277 22.5703 127.947C22.8118 128.615 22.9325 129.42 22.9325 130.364C22.9325 131.312 22.8132 132.122 22.5746 132.793C22.3359 133.46 21.9908 133.97 21.5391 134.322C21.0874 134.672 20.5405 134.847 19.8984 134.847ZM19.8984 133.909C20.5348 133.909 21.0291 133.602 21.3814 132.989C21.7337 132.375 21.9098 131.5 21.9098 130.364C21.9098 129.608 21.8288 128.964 21.6669 128.433C21.5078 127.902 21.2777 127.497 20.9766 127.219C20.6783 126.94 20.3189 126.801 19.8984 126.801C19.2678 126.801 18.7749 127.112 18.4197 127.734C18.0646 128.354 17.8871 129.23 17.8871 130.364C17.8871 131.119 17.9666 131.761 18.1257 132.29C18.2848 132.818 18.5135 133.22 18.8118 133.496C19.1129 133.771 19.4751 133.909 19.8984 133.909ZM27.3984 134.847C26.7564 134.847 26.2095 134.672 25.7578 134.322C25.3061 133.97 24.9609 133.46 24.7223 132.793C24.4837 132.122 24.3643 131.312 24.3643 130.364C24.3643 129.42 24.4837 128.615 24.7223 127.947C24.9638 127.277 25.3104 126.766 25.7621 126.413C26.2166 126.058 26.7621 125.881 27.3984 125.881C28.0348 125.881 28.5788 126.058 29.0305 126.413C29.4851 126.766 29.8317 127.277 30.0703 127.947C30.3118 128.615 30.4325 129.42 30.4325 130.364C30.4325 131.312 30.3132 132.122 30.0746 132.793C29.8359 133.46 29.4908 133.97 29.0391 134.322C28.5874 134.672 28.0405 134.847 27.3984 134.847ZM27.3984 133.909C28.0348 133.909 28.5291 133.602 28.8814 132.989C29.2337 132.375 29.4098 131.5 29.4098 130.364C29.4098 129.608 29.3288 128.964 29.1669 128.433C29.0078 127.902 28.7777 127.497 28.4766 127.219C28.1783 126.94 27.8189 126.801 27.3984 126.801C26.7678 126.801 26.2749 127.112 25.9197 127.734C25.5646 128.354 25.3871 129.23 25.3871 130.364C25.3871 131.119 25.4666 131.761 25.6257 132.29C25.7848 132.818 26.0135 133.22 26.3118 133.496C26.6129 133.771 26.9751 133.909 27.3984 133.909Z" fill="#9CA3AF"/>
<line y1="229.455" x2="200" y2="229.455" stroke="#1F2937" stroke-width="2"/>
<path d="M3.97159 217.727V226.455H2.91477V218.835H2.86364L0.732955 220.25V219.176L2.91477 217.727H3.97159ZM9.4304 226.574C8.8679 226.574 8.36648 226.477 7.92614 226.284C7.48864 226.091 7.14063 225.822 6.8821 225.479C6.62642 225.132 6.48722 224.73 6.46449 224.273H7.53835C7.56108 224.554 7.65767 224.797 7.82812 225.001C7.99858 225.203 8.22159 225.359 8.49716 225.47C8.77273 225.581 9.07813 225.636 9.41335 225.636C9.78835 225.636 10.1207 225.571 10.4105 225.44C10.7003 225.31 10.9276 225.128 11.0923 224.895C11.2571 224.662 11.3395 224.392 11.3395 224.085C11.3395 223.764 11.2599 223.482 11.1009 223.237C10.9418 222.99 10.7088 222.797 10.402 222.658C10.0952 222.518 9.72017 222.449 9.27699 222.449H8.57812V221.511H9.27699C9.62358 221.511 9.92756 221.449 10.1889 221.324C10.4531 221.199 10.6591 221.023 10.8068 220.795C10.9574 220.568 11.0327 220.301 11.0327 219.994C11.0327 219.699 10.9673 219.442 10.8366 219.223C10.706 219.004 10.5213 218.834 10.2827 218.712C10.0469 218.589 9.76847 218.528 9.44744 218.528C9.14631 218.528 8.86222 218.584 8.59517 218.695C8.33097 218.803 8.11506 218.96 7.94744 219.168C7.77983 219.372 7.68892 219.619 7.67472 219.909H6.65199C6.66903 219.452 6.80682 219.051 7.06534 218.707C7.32386 218.361 7.66193 218.091 8.07955 217.898C8.5 217.705 8.96165 217.608 9.46449 217.608C10.0043 217.608 10.4673 217.717 10.8537 217.936C11.2401 218.152 11.5369 218.437 11.7443 218.793C11.9517 219.148 12.0554 219.531 12.0554 219.943C12.0554 220.435 11.9261 220.854 11.6676 221.2C11.4119 221.547 11.0639 221.787 10.6236 221.92V221.989C11.1747 222.08 11.6051 222.314 11.9148 222.692C12.2244 223.067 12.3793 223.531 12.3793 224.085C12.3793 224.56 12.25 224.986 11.9915 225.364C11.7358 225.739 11.3864 226.034 10.9432 226.25C10.5 226.466 9.99574 226.574 9.4304 226.574ZM14.8722 225.338C14.6619 225.338 14.4815 225.263 14.331 225.112C14.1804 224.962 14.1051 224.781 14.1051 224.571C14.1051 224.361 14.1804 224.18 14.331 224.03C14.4815 223.879 14.6619 223.804 14.8722 223.804C15.0824 223.804 15.2628 223.879 15.4134 224.03C15.5639 224.18 15.6392 224.361 15.6392 224.571C15.6392 224.71 15.6037 224.838 15.5327 224.955C15.4645 225.071 15.3722 225.165 15.2557 225.236C15.142 225.304 15.0142 225.338 14.8722 225.338ZM14.8722 220.923C14.6619 220.923 14.4815 220.848 14.331 220.697C14.1804 220.547 14.1051 220.366 14.1051 220.156C14.1051 219.946 14.1804 219.766 14.331 219.615C14.4815 219.464 14.6619 219.389 14.8722 219.389C15.0824 219.389 15.2628 219.464 15.4134 219.615C15.5639 219.766 15.6392 219.946 15.6392 220.156C15.6392 220.295 15.6037 220.423 15.5327 220.54C15.4645 220.656 15.3722 220.75 15.2557 220.821C15.142 220.889 15.0142 220.923 14.8722 220.923ZM20.2734 226.574C19.6314 226.574 19.0845 226.399 18.6328 226.05C18.1811 225.697 17.8359 225.187 17.5973 224.52C17.3587 223.849 17.2393 223.04 17.2393 222.091C17.2393 221.148 17.3587 220.342 17.5973 219.675C17.8388 219.004 18.1854 218.493 18.6371 218.141C19.0916 217.786 19.6371 217.608 20.2734 217.608C20.9098 217.608 21.4538 217.786 21.9055 218.141C22.3601 218.493 22.7067 219.004 22.9453 219.675C23.1868 220.342 23.3075 221.148 23.3075 222.091C23.3075 223.04 23.1882 223.849 22.9496 224.52C22.7109 225.187 22.3658 225.697 21.9141 226.05C21.4624 226.399 20.9155 226.574 20.2734 226.574ZM20.2734 225.636C20.9098 225.636 21.4041 225.33 21.7564 224.716C22.1087 224.102 22.2848 223.227 22.2848 222.091C22.2848 221.335 22.2038 220.692 22.0419 220.161C21.8828 219.629 21.6527 219.224 21.3516 218.946C21.0533 218.668 20.6939 218.528 20.2734 218.528C19.6428 218.528 19.1499 218.839 18.7947 219.462C18.4396 220.081 18.2621 220.957 18.2621 222.091C18.2621 222.847 18.3416 223.489 18.5007 224.017C18.6598 224.545 18.8885 224.947 19.1868 225.223C19.4879 225.499 19.8501 225.636 20.2734 225.636ZM27.7734 226.574C27.1314 226.574 26.5845 226.399 26.1328 226.05C25.6811 225.697 25.3359 225.187 25.0973 224.52C24.8587 223.849 24.7393 223.04 24.7393 222.091C24.7393 221.148 24.8587 220.342 25.0973 219.675C25.3388 219.004 25.6854 218.493 26.1371 218.141C26.5916 217.786 27.1371 217.608 27.7734 217.608C28.4098 217.608 28.9538 217.786 29.4055 218.141C29.8601 218.493 30.2067 219.004 30.4453 219.675C30.6868 220.342 30.8075 221.148 30.8075 222.091C30.8075 223.04 30.6882 223.849 30.4496 224.52C30.2109 225.187 29.8658 225.697 29.4141 226.05C28.9624 226.399 28.4155 226.574 27.7734 226.574ZM27.7734 225.636C28.4098 225.636 28.9041 225.33 29.2564 224.716C29.6087 224.102 29.7848 223.227 29.7848 222.091C29.7848 221.335 29.7038 220.692 29.5419 220.161C29.3828 219.629 29.1527 219.224 28.8516 218.946C28.5533 218.668 28.1939 218.528 27.7734 218.528C27.1428 218.528 26.6499 218.839 26.2947 219.462C25.9396 220.081 25.7621 220.957 25.7621 222.091C25.7621 222.847 25.8416 223.489 26.0007 224.017C26.1598 224.545 26.3885 224.947 26.6868 225.223C26.9879 225.499 27.3501 225.636 27.7734 225.636Z" fill="#9CA3AF"/>
<line y1="321.182" x2="200" y2="321.182" stroke="#1F2937" stroke-width="2"/>
<path d="M3.97159 309.455V318.182H2.91477V310.563H2.86364L0.732955 311.977V310.903L2.91477 309.455H3.97159ZM6.27699 316.392V315.523L10.1122 309.455H10.7429V310.801H10.3168L7.41903 315.386V315.455H12.5838V316.392H6.27699ZM10.3849 318.182V316.128V315.723V309.455H11.3906V318.182H10.3849ZM14.9308 317.065C14.7205 317.065 14.5401 316.99 14.3896 316.839C14.239 316.689 14.1637 316.509 14.1637 316.298C14.1637 316.088 14.239 315.908 14.3896 315.757C14.5401 315.607 14.7205 315.531 14.9308 315.531C15.141 315.531 15.3214 315.607 15.4719 315.757C15.6225 315.908 15.6978 316.088 15.6978 316.298C15.6978 316.438 15.6623 316.565 15.5913 316.682C15.5231 316.798 15.4308 316.892 15.3143 316.963C15.2006 317.031 15.0728 317.065 14.9308 317.065ZM14.9308 312.651C14.7205 312.651 14.5401 312.575 14.3896 312.425C14.239 312.274 14.1637 312.094 14.1637 311.884C14.1637 311.673 14.239 311.493 14.3896 311.342C14.5401 311.192 14.7205 311.116 14.9308 311.116C15.141 311.116 15.3214 311.192 15.4719 311.342C15.6225 311.493 15.6978 311.673 15.6978 311.884C15.6978 312.023 15.6623 312.151 15.5913 312.267C15.5231 312.384 15.4308 312.477 15.3143 312.548C15.2006 312.616 15.0728 312.651 14.9308 312.651ZM20.332 318.301C19.69 318.301 19.1431 318.126 18.6914 317.777C18.2397 317.425 17.8945 316.915 17.6559 316.247C17.4173 315.577 17.2979 314.767 17.2979 313.818C17.2979 312.875 17.4173 312.07 17.6559 311.402C17.8974 310.732 18.244 310.22 18.6957 309.868C19.1502 309.513 19.6957 309.335 20.332 309.335C20.9684 309.335 21.5124 309.513 21.9641 309.868C22.4187 310.22 22.7653 310.732 23.0039 311.402C23.2454 312.07 23.3661 312.875 23.3661 313.818C23.3661 314.767 23.2468 315.577 23.0082 316.247C22.7695 316.915 22.4244 317.425 21.9727 317.777C21.521 318.126 20.9741 318.301 20.332 318.301ZM20.332 317.364C20.9684 317.364 21.4627 317.057 21.815 316.443C22.1673 315.83 22.3434 314.955 22.3434 313.818C22.3434 313.063 22.2624 312.419 22.1005 311.888C21.9414 311.357 21.7113 310.952 21.4102 310.673C21.1119 310.395 20.7525 310.256 20.332 310.256C19.7013 310.256 19.2085 310.567 18.8533 311.189C18.4982 311.808 18.3207 312.685 18.3207 313.818C18.3207 314.574 18.4002 315.216 18.5593 315.744C18.7184 316.273 18.9471 316.675 19.2454 316.95C19.5465 317.226 19.9087 317.364 20.332 317.364ZM27.832 318.301C27.19 318.301 26.6431 318.126 26.1914 317.777C25.7397 317.425 25.3945 316.915 25.1559 316.247C24.9173 315.577 24.7979 314.767 24.7979 313.818C24.7979 312.875 24.9173 312.07 25.1559 311.402C25.3974 310.732 25.744 310.22 26.1957 309.868C26.6502 309.513 27.1957 309.335 27.832 309.335C28.4684 309.335 29.0124 309.513 29.4641 309.868C29.9187 310.22 30.2653 310.732 30.5039 311.402C30.7454 312.07 30.8661 312.875 30.8661 313.818C30.8661 314.767 30.7468 315.577 30.5082 316.247C30.2695 316.915 29.9244 317.425 29.4727 317.777C29.021 318.126 28.4741 318.301 27.832 318.301ZM27.832 317.364C28.4684 317.364 28.9627 317.057 29.315 316.443C29.6673 315.83 29.8434 314.955 29.8434 313.818C29.8434 313.063 29.7624 312.419 29.6005 311.888C29.4414 311.357 29.2113 310.952 28.9102 310.673C28.6119 310.395 28.2525 310.256 27.832 310.256C27.2013 310.256 26.7085 310.567 26.3533 311.189C25.9982 311.808 25.8207 312.685 25.8207 313.818C25.8207 314.574 25.9002 315.216 26.0593 315.744C26.2184 316.273 26.4471 316.675 26.7454 316.95C27.0465 317.226 27.4087 317.364 27.832 317.364Z" fill="#9CA3AF"/>
<line y1="412.909" x2="200" y2="412.909" stroke="#1F2937" stroke-width="2"/>
<path d="M3.97159 401.182V409.909H2.91477V402.29H2.86364L0.732955 403.705V402.631L2.91477 401.182H3.97159ZM9.20881 410.028C8.70881 410.028 8.25852 409.929 7.85795 409.73C7.45739 409.531 7.13636 409.259 6.89489 408.912C6.65341 408.565 6.52131 408.17 6.49858 407.727H7.52131C7.56108 408.122 7.74006 408.449 8.05824 408.707C8.37926 408.963 8.76278 409.091 9.20881 409.091C9.56676 409.091 9.88494 409.007 10.1634 408.839C10.4446 408.672 10.6648 408.442 10.8239 408.149C10.9858 407.854 11.0668 407.52 11.0668 407.148C11.0668 406.767 10.983 406.428 10.8153 406.129C10.6506 405.828 10.4233 405.591 10.1335 405.418C9.84375 405.244 9.51278 405.156 9.14062 405.153C8.87358 405.151 8.59943 405.192 8.31818 405.277C8.03693 405.359 7.8054 405.466 7.62358 405.597L6.63494 405.477L7.16335 401.182H11.6974V402.119H8.04972L7.7429 404.693H7.79403C7.97301 404.551 8.19744 404.433 8.46733 404.339C8.73722 404.246 9.01847 404.199 9.31108 404.199C9.84517 404.199 10.321 404.327 10.7386 404.582C11.1591 404.835 11.4886 405.182 11.7273 405.622C11.9688 406.062 12.0895 406.565 12.0895 407.131C12.0895 407.687 11.9645 408.185 11.7145 408.622C11.4673 409.057 11.1264 409.401 10.6918 409.653C10.2571 409.903 9.76278 410.028 9.20881 410.028ZM14.5323 408.793C14.3221 408.793 14.1417 408.717 13.9911 408.567C13.8406 408.416 13.7653 408.236 13.7653 408.026C13.7653 407.815 13.8406 407.635 13.9911 407.484C14.1417 407.334 14.3221 407.259 14.5323 407.259C14.7425 407.259 14.9229 407.334 15.0735 407.484C15.2241 407.635 15.2994 407.815 15.2994 408.026C15.2994 408.165 15.2638 408.293 15.1928 408.409C15.1246 408.526 15.0323 408.619 14.9158 408.69C14.8022 408.759 14.6744 408.793 14.5323 408.793ZM14.5323 404.378C14.3221 404.378 14.1417 404.303 13.9911 404.152C13.8406 404.001 13.7653 403.821 13.7653 403.611C13.7653 403.401 13.8406 403.22 13.9911 403.07C14.1417 402.919 14.3221 402.844 14.5323 402.844C14.7425 402.844 14.9229 402.919 15.0735 403.07C15.2241 403.22 15.2994 403.401 15.2994 403.611C15.2994 403.75 15.2638 403.878 15.1928 403.994C15.1246 404.111 15.0323 404.205 14.9158 404.276C14.8022 404.344 14.6744 404.378 14.5323 404.378ZM19.9336 410.028C19.2915 410.028 18.7447 409.854 18.293 409.504C17.8413 409.152 17.4961 408.642 17.2575 407.974C17.0188 407.304 16.8995 406.494 16.8995 405.545C16.8995 404.602 17.0188 403.797 17.2575 403.129C17.4989 402.459 17.8455 401.947 18.2972 401.595C18.7518 401.24 19.2972 401.062 19.9336 401.062C20.57 401.062 21.114 401.24 21.5657 401.595C22.0202 401.947 22.3668 402.459 22.6055 403.129C22.8469 403.797 22.9677 404.602 22.9677 405.545C22.9677 406.494 22.8484 407.304 22.6097 407.974C22.3711 408.642 22.0259 409.152 21.5742 409.504C21.1225 409.854 20.5756 410.028 19.9336 410.028ZM19.9336 409.091C20.57 409.091 21.0643 408.784 21.4165 408.17C21.7688 407.557 21.945 406.682 21.945 405.545C21.945 404.79 21.864 404.146 21.7021 403.615C21.543 403.084 21.3129 402.679 21.0117 402.401C20.7134 402.122 20.354 401.983 19.9336 401.983C19.3029 401.983 18.81 402.294 18.4549 402.916C18.0998 403.536 17.9222 404.412 17.9222 405.545C17.9222 406.301 18.0018 406.943 18.1609 407.472C18.32 408 18.5487 408.402 18.8469 408.678C19.1481 408.953 19.5103 409.091 19.9336 409.091ZM27.4336 410.028C26.7915 410.028 26.2447 409.854 25.793 409.504C25.3413 409.152 24.9961 408.642 24.7575 407.974C24.5188 407.304 24.3995 406.494 24.3995 405.545C24.3995 404.602 24.5188 403.797 24.7575 403.129C24.9989 402.459 25.3455 401.947 25.7972 401.595C26.2518 401.24 26.7972 401.062 27.4336 401.062C28.07 401.062 28.614 401.24 29.0657 401.595C29.5202 401.947 29.8668 402.459 30.1055 403.129C30.3469 403.797 30.4677 404.602 30.4677 405.545C30.4677 406.494 30.3484 407.304 30.1097 407.974C29.8711 408.642 29.5259 409.152 29.0742 409.504C28.6225 409.854 28.0756 410.028 27.4336 410.028ZM27.4336 409.091C28.07 409.091 28.5643 408.784 28.9165 408.17C29.2688 407.557 29.445 406.682 29.445 405.545C29.445 404.79 29.364 404.146 29.2021 403.615C29.043 403.084 28.8129 402.679 28.5117 402.401C28.2134 402.122 27.854 401.983 27.4336 401.983C26.8029 401.983 26.31 402.294 25.9549 402.916C25.5998 403.536 25.4222 404.412 25.4222 405.545C25.4222 406.301 25.5018 406.943 25.6609 407.472C25.82 408 26.0487 408.402 26.3469 408.678C26.6481 408.953 27.0103 409.091 27.4336 409.091Z" fill="#9CA3AF"/>
<line y1="504.636" x2="200" y2="504.636" stroke="#1F2937" stroke-width="2"/>
<path d="M3.97159 492.909V501.636H2.91477V494.017H2.86364L0.732955 495.432V494.358L2.91477 492.909H3.97159ZM9.37926 501.756C9.02131 501.75 8.66335 501.682 8.3054 501.551C7.94744 501.42 7.62074 501.2 7.32528 500.891C7.02983 500.578 6.79261 500.156 6.61364 499.625C6.43466 499.091 6.34517 498.42 6.34517 497.614C6.34517 496.841 6.41761 496.156 6.5625 495.56C6.70739 494.96 6.91761 494.456 7.19318 494.047C7.46875 493.635 7.80114 493.322 8.19034 493.109C8.58239 492.896 9.02415 492.79 9.51562 492.79C10.0043 492.79 10.4389 492.888 10.8196 493.084C11.2031 493.277 11.5156 493.547 11.7571 493.893C11.9986 494.24 12.1548 494.639 12.2259 495.091H11.1861C11.0895 494.699 10.902 494.374 10.6236 494.115C10.3452 493.857 9.97585 493.727 9.51562 493.727C8.83949 493.727 8.30682 494.021 7.91761 494.609C7.53125 495.197 7.33665 496.023 7.33381 497.085H7.40199C7.56108 496.844 7.75 496.638 7.96875 496.467C8.19034 496.294 8.43466 496.161 8.7017 496.067C8.96875 495.973 9.25142 495.926 9.54972 495.926C10.0497 495.926 10.5071 496.051 10.9219 496.301C11.3366 496.548 11.669 496.891 11.919 497.328C12.169 497.763 12.294 498.261 12.294 498.824C12.294 499.364 12.1733 499.858 11.9318 500.307C11.6903 500.753 11.3509 501.108 10.9134 501.372C10.4787 501.634 9.96733 501.761 9.37926 501.756ZM9.37926 500.818C9.73722 500.818 10.0582 500.729 10.3423 500.55C10.6293 500.371 10.8551 500.131 11.0199 499.83C11.1875 499.528 11.2713 499.193 11.2713 498.824C11.2713 498.463 11.1903 498.135 11.0284 497.839C10.8693 497.541 10.6491 497.304 10.3679 497.128C10.0895 496.952 9.77131 496.864 9.41335 496.864C9.14347 496.864 8.89205 496.918 8.65909 497.026C8.42614 497.131 8.22159 497.276 8.04545 497.46C7.87216 497.645 7.7358 497.857 7.63636 498.095C7.53693 498.331 7.48722 498.58 7.48722 498.841C7.48722 499.187 7.56818 499.511 7.73011 499.812C7.89489 500.114 8.11932 500.357 8.40341 500.541C8.69034 500.726 9.01562 500.818 9.37926 500.818ZM14.7198 500.52C14.5096 500.52 14.3292 500.445 14.1786 500.294C14.0281 500.143 13.9528 499.963 13.9528 499.753C13.9528 499.543 14.0281 499.362 14.1786 499.212C14.3292 499.061 14.5096 498.986 14.7198 498.986C14.93 498.986 15.1104 499.061 15.261 499.212C15.4116 499.362 15.4869 499.543 15.4869 499.753C15.4869 499.892 15.4513 500.02 15.3803 500.136C15.3121 500.253 15.2198 500.347 15.1033 500.418C14.9897 500.486 14.8619 500.52 14.7198 500.52ZM14.7198 496.105C14.5096 496.105 14.3292 496.03 14.1786 495.879C14.0281 495.729 13.9528 495.548 13.9528 495.338C13.9528 495.128 14.0281 494.947 14.1786 494.797C14.3292 494.646 14.5096 494.571 14.7198 494.571C14.93 494.571 15.1104 494.646 15.261 494.797C15.4116 494.947 15.4869 495.128 15.4869 495.338C15.4869 495.477 15.4513 495.605 15.3803 495.722C15.3121 495.838 15.2198 495.932 15.1033 496.003C14.9897 496.071 14.8619 496.105 14.7198 496.105ZM20.1211 501.756C19.479 501.756 18.9322 501.581 18.4805 501.232C18.0288 500.879 17.6836 500.369 17.445 499.702C17.2063 499.031 17.087 498.222 17.087 497.273C17.087 496.33 17.2063 495.524 17.445 494.857C17.6864 494.186 18.033 493.675 18.4847 493.322C18.9393 492.967 19.4847 492.79 20.1211 492.79C20.7575 492.79 21.3015 492.967 21.7532 493.322C22.2077 493.675 22.5543 494.186 22.793 494.857C23.0344 495.524 23.1552 496.33 23.1552 497.273C23.1552 498.222 23.0359 499.031 22.7972 499.702C22.5586 500.369 22.2134 500.879 21.7617 501.232C21.31 501.581 20.7631 501.756 20.1211 501.756ZM20.1211 500.818C20.7575 500.818 21.2518 500.511 21.604 499.898C21.9563 499.284 22.1325 498.409 22.1325 497.273C22.1325 496.517 22.0515 495.874 21.8896 495.342C21.7305 494.811 21.5004 494.406 21.1992 494.128C20.9009 493.849 20.5415 493.71 20.1211 493.71C19.4904 493.71 18.9975 494.021 18.6424 494.643C18.2873 495.263 18.1097 496.139 18.1097 497.273C18.1097 498.028 18.1893 498.67 18.3484 499.199C18.5075 499.727 18.7362 500.129 19.0344 500.405C19.3356 500.68 19.6978 500.818 20.1211 500.818ZM27.6211 501.756C26.979 501.756 26.4322 501.581 25.9805 501.232C25.5288 500.879 25.1836 500.369 24.945 499.702C24.7063 499.031 24.587 498.222 24.587 497.273C24.587 496.33 24.7063 495.524 24.945 494.857C25.1864 494.186 25.533 493.675 25.9847 493.322C26.4393 492.967 26.9847 492.79 27.6211 492.79C28.2575 492.79 28.8015 492.967 29.2532 493.322C29.7077 493.675 30.0543 494.186 30.293 494.857C30.5344 495.524 30.6552 496.33 30.6552 497.273C30.6552 498.222 30.5359 499.031 30.2972 499.702C30.0586 500.369 29.7134 500.879 29.2617 501.232C28.81 501.581 28.2631 501.756 27.6211 501.756ZM27.6211 500.818C28.2575 500.818 28.7518 500.511 29.104 499.898C29.4563 499.284 29.6325 498.409 29.6325 497.273C29.6325 496.517 29.5515 495.874 29.3896 495.342C29.2305 494.811 29.0004 494.406 28.6992 494.128C28.4009 493.849 28.0415 493.71 27.6211 493.71C26.9904 493.71 26.4975 494.021 26.1424 494.643C25.7873 495.263 25.6097 496.139 25.6097 497.273C25.6097 498.028 25.6893 498.67 25.8484 499.199C26.0075 499.727 26.2362 500.129 26.5344 500.405C26.8356 500.68 27.1978 500.818 27.6211 500.818Z" fill="#9CA3AF"/>
<line y1="596.364" x2="200" y2="596.364" stroke="#1F2937" stroke-width="2"/>
<path d="M3.97159 584.636V593.364H2.91477V585.744H2.86364L0.732955 587.159V586.085L2.91477 584.636H3.97159ZM6.75426 593.364L10.6577 585.642V585.574H6.15767V584.636H11.7486V585.625L7.86222 593.364H6.75426ZM13.6768 592.247C13.4666 592.247 13.2862 592.172 13.1357 592.021C12.9851 591.871 12.9098 591.69 12.9098 591.48C12.9098 591.27 12.9851 591.089 13.1357 590.939C13.2862 590.788 13.4666 590.713 13.6768 590.713C13.8871 590.713 14.0675 590.788 14.218 590.939C14.3686 591.089 14.4439 591.27 14.4439 591.48C14.4439 591.619 14.4084 591.747 14.3374 591.864C14.2692 591.98 14.1768 592.074 14.0604 592.145C13.9467 592.213 13.8189 592.247 13.6768 592.247ZM13.6768 587.832C13.4666 587.832 13.2862 587.757 13.1357 587.607C12.9851 587.456 12.9098 587.276 12.9098 587.065C12.9098 586.855 12.9851 586.675 13.1357 586.524C13.2862 586.374 13.4666 586.298 13.6768 586.298C13.8871 586.298 14.0675 586.374 14.218 586.524C14.3686 586.675 14.4439 586.855 14.4439 587.065C14.4439 587.205 14.4084 587.332 14.3374 587.449C14.2692 587.565 14.1768 587.659 14.0604 587.73C13.9467 587.798 13.8189 587.832 13.6768 587.832ZM19.0781 593.483C18.4361 593.483 17.8892 593.308 17.4375 592.959C16.9858 592.607 16.6406 592.097 16.402 591.429C16.1634 590.759 16.044 589.949 16.044 589C16.044 588.057 16.1634 587.251 16.402 586.584C16.6435 585.913 16.9901 585.402 17.4418 585.05C17.8963 584.695 18.4418 584.517 19.0781 584.517C19.7145 584.517 20.2585 584.695 20.7102 585.05C21.1648 585.402 21.5114 585.913 21.75 586.584C21.9915 587.251 22.1122 588.057 22.1122 589C22.1122 589.949 21.9929 590.759 21.7543 591.429C21.5156 592.097 21.1705 592.607 20.7188 592.959C20.267 593.308 19.7202 593.483 19.0781 593.483ZM19.0781 592.545C19.7145 592.545 20.2088 592.239 20.5611 591.625C20.9134 591.011 21.0895 590.136 21.0895 589C21.0895 588.244 21.0085 587.601 20.8466 587.07C20.6875 586.538 20.4574 586.134 20.1562 585.855C19.858 585.577 19.4986 585.438 19.0781 585.438C18.4474 585.438 17.9545 585.749 17.5994 586.371C17.2443 586.99 17.0668 587.866 17.0668 589C17.0668 589.756 17.1463 590.398 17.3054 590.926C17.4645 591.455 17.6932 591.857 17.9915 592.132C18.2926 592.408 18.6548 592.545 19.0781 592.545ZM26.5781 593.483C25.9361 593.483 25.3892 593.308 24.9375 592.959C24.4858 592.607 24.1406 592.097 23.902 591.429C23.6634 590.759 23.544 589.949 23.544 589C23.544 588.057 23.6634 587.251 23.902 586.584C24.1435 585.913 24.4901 585.402 24.9418 585.05C25.3963 584.695 25.9418 584.517 26.5781 584.517C27.2145 584.517 27.7585 584.695 28.2102 585.05C28.6648 585.402 29.0114 585.913 29.25 586.584C29.4915 587.251 29.6122 588.057 29.6122 589C29.6122 589.949 29.4929 590.759 29.2543 591.429C29.0156 592.097 28.6705 592.607 28.2188 592.959C27.767 593.308 27.2202 593.483 26.5781 593.483ZM26.5781 592.545C27.2145 592.545 27.7088 592.239 28.0611 591.625C28.4134 591.011 28.5895 590.136 28.5895 589C28.5895 588.244 28.5085 587.601 28.3466 587.07C28.1875 586.538 27.9574 586.134 27.6562 585.855C27.358 585.577 26.9986 585.438 26.5781 585.438C25.9474 585.438 25.4545 585.749 25.0994 586.371C24.7443 586.99 24.5668 587.866 24.5668 589C24.5668 589.756 24.6463 590.398 24.8054 590.926C24.9645 591.455 25.1932 591.857 25.4915 592.132C25.7926 592.408 26.1548 592.545 26.5781 592.545Z" fill="#9CA3AF"/>
<line y1="688.091" x2="200" y2="688.091" stroke="#1F2937" stroke-width="2"/>
<path d="M3.97159 676.364V685.091H2.91477V677.472H2.86364L0.732955 678.886V677.813L2.91477 676.364H3.97159ZM9.27699 685.21C8.69176 685.21 8.17472 685.107 7.72585 684.899C7.27983 684.689 6.93182 684.401 6.68182 684.034C6.43182 683.665 6.30824 683.244 6.31108 682.773C6.30824 682.403 6.38068 682.063 6.52841 681.75C6.67614 681.435 6.87784 681.172 7.13352 680.962C7.39205 680.749 7.6804 680.614 7.99858 680.557V680.506C7.58097 680.398 7.24858 680.163 7.00142 679.803C6.75426 679.439 6.6321 679.026 6.63494 678.563C6.6321 678.119 6.74432 677.723 6.97159 677.374C7.19886 677.024 7.51136 676.749 7.90909 676.547C8.30966 676.345 8.76563 676.244 9.27699 676.244C9.78267 676.244 10.2344 676.345 10.6321 676.547C11.0298 676.749 11.3423 677.024 11.5696 677.374C11.7997 677.723 11.9162 678.119 11.919 678.563C11.9162 679.026 11.7898 679.439 11.5398 679.803C11.2926 680.163 10.9645 680.398 10.5554 680.506V680.557C10.8707 680.614 11.1548 680.749 11.4077 680.962C11.6605 681.172 11.8622 681.435 12.0128 681.75C12.1634 682.063 12.2401 682.403 12.2429 682.773C12.2401 683.244 12.1122 683.665 11.8594 684.034C11.6094 684.401 11.2614 684.689 10.8153 684.899C10.3722 685.107 9.85938 685.21 9.27699 685.21ZM9.27699 684.273C9.67188 684.273 10.0128 684.209 10.2997 684.081C10.5866 683.953 10.8082 683.773 10.9645 683.54C11.1207 683.307 11.2003 683.034 11.2031 682.722C11.2003 682.392 11.1151 682.101 10.9474 681.848C10.7798 681.595 10.5511 681.396 10.2614 681.251C9.97443 681.107 9.64631 681.034 9.27699 681.034C8.90483 681.034 8.57244 681.107 8.27983 681.251C7.99006 681.396 7.76136 681.595 7.59375 681.848C7.42898 682.101 7.34801 682.392 7.35085 682.722C7.34801 683.034 7.4233 683.307 7.5767 683.54C7.73295 683.773 7.95597 683.953 8.24574 684.081C8.53551 684.209 8.87926 684.273 9.27699 684.273ZM9.27699 680.131C9.58949 680.131 9.86648 680.068 10.108 679.943C10.3523 679.818 10.544 679.643 10.6832 679.419C10.8224 679.195 10.8935 678.932 10.8963 678.631C10.8935 678.335 10.8239 678.078 10.6875 677.859C10.5511 677.638 10.3622 677.467 10.1207 677.348C9.87926 677.226 9.59801 677.165 9.27699 677.165C8.95028 677.165 8.66477 677.226 8.42045 677.348C8.17614 677.467 7.98722 677.638 7.85369 677.859C7.72017 678.078 7.65483 678.335 7.65767 678.631C7.65483 678.932 7.72159 679.195 7.85795 679.419C7.99716 679.643 8.18892 679.818 8.43324 679.943C8.67756 680.068 8.95881 680.131 9.27699 680.131ZM14.6261 683.974C14.4158 683.974 14.2354 683.899 14.0849 683.749C13.9343 683.598 13.859 683.418 13.859 683.207C13.859 682.997 13.9343 682.817 14.0849 682.666C14.2354 682.516 14.4158 682.44 14.6261 682.44C14.8363 682.44 15.0167 682.516 15.1673 682.666C15.3178 682.817 15.3931 682.997 15.3931 683.207C15.3931 683.347 15.3576 683.474 15.2866 683.591C15.2184 683.707 15.1261 683.801 15.0096 683.872C14.896 683.94 14.7681 683.974 14.6261 683.974ZM14.6261 679.56C14.4158 679.56 14.2354 679.484 14.0849 679.334C13.9343 679.183 13.859 679.003 13.859 678.793C13.859 678.582 13.9343 678.402 14.0849 678.251C14.2354 678.101 14.4158 678.026 14.6261 678.026C14.8363 678.026 15.0167 678.101 15.1673 678.251C15.3178 678.402 15.3931 678.582 15.3931 678.793C15.3931 678.932 15.3576 679.06 15.2866 679.176C15.2184 679.293 15.1261 679.386 15.0096 679.457C14.896 679.526 14.7681 679.56 14.6261 679.56ZM20.0273 685.21C19.3853 685.21 18.8384 685.036 18.3867 684.686C17.935 684.334 17.5898 683.824 17.3512 683.156C17.1126 682.486 16.9933 681.676 16.9933 680.727C16.9933 679.784 17.1126 678.979 17.3512 678.311C17.5927 677.641 17.9393 677.129 18.391 676.777C18.8455 676.422 19.391 676.244 20.0273 676.244C20.6637 676.244 21.2077 676.422 21.6594 676.777C22.114 677.129 22.4606 677.641 22.6992 678.311C22.9407 678.979 23.0614 679.784 23.0614 680.727C23.0614 681.676 22.9421 682.486 22.7035 683.156C22.4648 683.824 22.1197 684.334 21.668 684.686C21.2163 685.036 20.6694 685.21 20.0273 685.21ZM20.0273 684.273C20.6637 684.273 21.158 683.966 21.5103 683.352C21.8626 682.739 22.0387 681.864 22.0387 680.727C22.0387 679.972 21.9577 679.328 21.7958 678.797C21.6367 678.266 21.4066 677.861 21.1055 677.582C20.8072 677.304 20.4478 677.165 20.0273 677.165C19.3967 677.165 18.9038 677.476 18.5487 678.098C18.1935 678.717 18.016 679.594 18.016 680.727C18.016 681.483 18.0955 682.125 18.2546 682.653C18.4137 683.182 18.6424 683.584 18.9407 683.859C19.2418 684.135 19.604 684.273 20.0273 684.273ZM27.5273 685.21C26.8853 685.21 26.3384 685.036 25.8867 684.686C25.435 684.334 25.0898 683.824 24.8512 683.156C24.6126 682.486 24.4933 681.676 24.4933 680.727C24.4933 679.784 24.6126 678.979 24.8512 678.311C25.0927 677.641 25.4393 677.129 25.891 676.777C26.3455 676.422 26.891 676.244 27.5273 676.244C28.1637 676.244 28.7077 676.422 29.1594 676.777C29.614 677.129 29.9606 677.641 30.1992 678.311C30.4407 678.979 30.5614 679.784 30.5614 680.727C30.5614 681.676 30.4421 682.486 30.2035 683.156C29.9648 683.824 29.6197 684.334 29.168 684.686C28.7163 685.036 28.1694 685.21 27.5273 685.21ZM27.5273 684.273C28.1637 684.273 28.658 683.966 29.0103 683.352C29.3626 682.739 29.5387 681.864 29.5387 680.727C29.5387 679.972 29.4577 679.328 29.2958 678.797C29.1367 678.266 28.9066 677.861 28.6055 677.582C28.3072 677.304 27.9478 677.165 27.5273 677.165C26.8967 677.165 26.4038 677.476 26.0487 678.098C25.6935 678.717 25.516 679.594 25.516 680.727C25.516 681.483 25.5955 682.125 25.7546 682.653C25.9137 683.182 26.1424 683.584 26.4407 683.859C26.7418 684.135 27.104 684.273 27.5273 684.273Z" fill="#9CA3AF"/>
<line y1="779.818" x2="200" y2="779.818" stroke="#1F2937" stroke-width="2"/>
<path d="M3.97159 768.091V776.818H2.91477V769.199H2.86364L0.732955 770.614V769.54L2.91477 768.091H3.97159ZM9.25994 767.972C9.6179 767.974 9.97585 768.043 10.3338 768.176C10.6918 768.31 11.0185 768.531 11.3139 768.841C11.6094 769.148 11.8466 769.567 12.0256 770.098C12.2045 770.629 12.294 771.296 12.294 772.097C12.294 772.872 12.2202 773.561 12.0724 774.163C11.9276 774.763 11.7173 775.269 11.4418 775.68C11.169 776.092 10.8366 776.405 10.4446 776.618C10.0554 776.831 9.61506 776.938 9.12358 776.938C8.63494 776.938 8.19886 776.841 7.81534 776.648C7.43466 776.452 7.12216 776.18 6.87784 775.834C6.63636 775.484 6.48153 775.08 6.41335 774.619H7.45312C7.54688 775.02 7.73295 775.351 8.01136 775.612C8.29261 775.871 8.66335 776 9.12358 776C9.79688 776 10.3281 775.706 10.7173 775.118C11.1094 774.53 11.3054 773.699 11.3054 772.625H11.2372C11.0781 772.864 10.8892 773.07 10.6705 773.243C10.4517 773.416 10.2088 773.55 9.94176 773.644C9.67472 773.737 9.39063 773.784 9.08949 773.784C8.58949 773.784 8.13068 773.661 7.71307 773.413C7.2983 773.163 6.96591 772.821 6.71591 772.386C6.46875 771.949 6.34517 771.449 6.34517 770.886C6.34517 770.352 6.46449 769.864 6.70312 769.421C6.9446 768.974 7.28267 768.619 7.71733 768.355C8.15483 768.091 8.66903 767.963 9.25994 767.972ZM9.25994 768.909C8.90199 768.909 8.57955 768.999 8.29261 769.178C8.00852 769.354 7.78267 769.592 7.61506 769.894C7.45028 770.192 7.3679 770.523 7.3679 770.886C7.3679 771.25 7.44744 771.581 7.60653 771.879C7.76847 772.175 7.98864 772.411 8.26705 772.587C8.5483 772.76 8.8679 772.847 9.22585 772.847C9.49574 772.847 9.74716 772.794 9.98011 772.689C10.2131 772.581 10.4162 772.435 10.5895 772.25C10.7656 772.063 10.9034 771.851 11.0028 771.615C11.1023 771.376 11.152 771.128 11.152 770.869C11.152 770.528 11.0696 770.209 10.9048 769.911C10.7429 769.612 10.5185 769.371 10.2315 769.186C9.94744 769.001 9.62358 768.909 9.25994 768.909ZM14.7198 775.702C14.5096 775.702 14.3292 775.626 14.1786 775.476C14.0281 775.325 13.9528 775.145 13.9528 774.935C13.9528 774.724 14.0281 774.544 14.1786 774.394C14.3292 774.243 14.5096 774.168 14.7198 774.168C14.93 774.168 15.1104 774.243 15.261 774.394C15.4116 774.544 15.4869 774.724 15.4869 774.935C15.4869 775.074 15.4513 775.202 15.3803 775.318C15.3121 775.435 15.2198 775.528 15.1033 775.599C14.9897 775.668 14.8619 775.702 14.7198 775.702ZM14.7198 771.287C14.5096 771.287 14.3292 771.212 14.1786 771.061C14.0281 770.911 13.9528 770.73 13.9528 770.52C13.9528 770.31 14.0281 770.129 14.1786 769.979C14.3292 769.828 14.5096 769.753 14.7198 769.753C14.93 769.753 15.1104 769.828 15.261 769.979C15.4116 770.129 15.4869 770.31 15.4869 770.52C15.4869 770.659 15.4513 770.787 15.3803 770.903C15.3121 771.02 15.2198 771.114 15.1033 771.185C14.9897 771.253 14.8619 771.287 14.7198 771.287ZM20.1211 776.938C19.479 776.938 18.9322 776.763 18.4805 776.413C18.0288 776.061 17.6836 775.551 17.445 774.884C17.2063 774.213 17.087 773.403 17.087 772.455C17.087 771.511 17.2063 770.706 17.445 770.038C17.6864 769.368 18.033 768.857 18.4847 768.504C18.9393 768.149 19.4847 767.972 20.1211 767.972C20.7575 767.972 21.3015 768.149 21.7532 768.504C22.2077 768.857 22.5543 769.368 22.793 770.038C23.0344 770.706 23.1552 771.511 23.1552 772.455C23.1552 773.403 23.0359 774.213 22.7972 774.884C22.5586 775.551 22.2134 776.061 21.7617 776.413C21.31 776.763 20.7631 776.938 20.1211 776.938ZM20.1211 776C20.7575 776 21.2518 775.693 21.604 775.08C21.9563 774.466 22.1325 773.591 22.1325 772.455C22.1325 771.699 22.0515 771.055 21.8896 770.524C21.7305 769.993 21.5004 769.588 21.1992 769.31C20.9009 769.031 20.5415 768.892 20.1211 768.892C19.4904 768.892 18.9975 769.203 18.6424 769.825C18.2873 770.445 18.1097 771.321 18.1097 772.455C18.1097 773.21 18.1893 773.852 18.3484 774.381C18.5075 774.909 18.7362 775.311 19.0344 775.587C19.3356 775.862 19.6978 776 20.1211 776ZM27.6211 776.938C26.979 776.938 26.4322 776.763 25.9805 776.413C25.5288 776.061 25.1836 775.551 24.945 774.884C24.7063 774.213 24.587 773.403 24.587 772.455C24.587 771.511 24.7063 770.706 24.945 770.038C25.1864 769.368 25.533 768.857 25.9847 768.504C26.4393 768.149 26.9847 767.972 27.6211 767.972C28.2575 767.972 28.8015 768.149 29.2532 768.504C29.7077 768.857 30.0543 769.368 30.293 770.038C30.5344 770.706 30.6552 771.511 30.6552 772.455C30.6552 773.403 30.5359 774.213 30.2972 774.884C30.0586 775.551 29.7134 776.061 29.2617 776.413C28.81 776.763 28.2631 776.938 27.6211 776.938ZM27.6211 776C28.2575 776 28.7518 775.693 29.104 775.08C29.4563 774.466 29.6325 773.591 29.6325 772.455C29.6325 771.699 29.5515 771.055 29.3896 770.524C29.2305 769.993 29.0004 769.588 28.6992 769.31C28.4009 769.031 28.0415 768.892 27.6211 768.892C26.9904 768.892 26.4975 769.203 26.1424 769.825C25.7873 770.445 25.6097 771.321 25.6097 772.455C25.6097 773.21 25.6893 773.852 25.8484 774.381C26.0075 774.909 26.2362 775.311 26.5344 775.587C26.8356 775.862 27.1978 776 27.6211 776Z" fill="#9CA3AF"/>
<line y1="871.546" x2="200" y2="871.546" stroke="#1F2937" stroke-width="2"/>
<path d="M0.903409 868.546V867.778L3.78409 864.625C4.12216 864.256 4.40057 863.935 4.61932 863.662C4.83807 863.386 5 863.128 5.10511 862.886C5.21307 862.642 5.26705 862.386 5.26705 862.119C5.26705 861.813 5.19318 861.547 5.04545 861.323C4.90057 861.098 4.7017 860.925 4.44886 860.803C4.19602 860.68 3.91193 860.619 3.59659 860.619C3.26136 860.619 2.96875 860.689 2.71875 860.828C2.47159 860.965 2.27983 861.156 2.14347 861.403C2.00994 861.651 1.94318 861.94 1.94318 862.273H0.9375C0.9375 861.761 1.0554 861.313 1.29119 860.926C1.52699 860.54 1.84801 860.239 2.25426 860.023C2.66335 859.807 3.12216 859.699 3.63068 859.699C4.14205 859.699 4.59517 859.807 4.99006 860.023C5.38494 860.239 5.6946 860.53 5.91903 860.896C6.14347 861.263 6.25568 861.671 6.25568 862.119C6.25568 862.44 6.19744 862.754 6.08097 863.061C5.96733 863.365 5.76847 863.705 5.48438 864.08C5.20312 864.452 4.8125 864.906 4.3125 865.443L2.35227 867.54V867.608H6.40909V868.546H0.903409ZM11.0156 868.665C10.3736 868.665 9.8267 868.49 9.375 868.141C8.9233 867.788 8.57813 867.278 8.33949 866.611C8.10085 865.94 7.98153 865.131 7.98153 864.182C7.98153 863.239 8.10085 862.433 8.33949 861.766C8.58097 861.095 8.92756 860.584 9.37926 860.232C9.83381 859.876 10.3793 859.699 11.0156 859.699C11.652 859.699 12.196 859.876 12.6477 860.232C13.1023 860.584 13.4489 861.095 13.6875 861.766C13.929 862.433 14.0497 863.239 14.0497 864.182C14.0497 865.131 13.9304 865.94 13.6918 866.611C13.4531 867.278 13.108 867.788 12.6562 868.141C12.2045 868.49 11.6577 868.665 11.0156 868.665ZM11.0156 867.727C11.652 867.727 12.1463 867.421 12.4986 866.807C12.8509 866.193 13.027 865.318 13.027 864.182C13.027 863.426 12.946 862.783 12.7841 862.251C12.625 861.72 12.3949 861.315 12.0938 861.037C11.7955 860.759 11.4361 860.619 11.0156 860.619C10.3849 860.619 9.89205 860.93 9.53693 861.553C9.18182 862.172 9.00426 863.048 9.00426 864.182C9.00426 864.938 9.08381 865.58 9.2429 866.108C9.40199 866.636 9.63068 867.038 9.92898 867.314C10.2301 867.59 10.5923 867.727 11.0156 867.727ZM16.419 867.429C16.2088 867.429 16.0284 867.354 15.8778 867.203C15.7273 867.053 15.652 866.872 15.652 866.662C15.652 866.452 15.7273 866.271 15.8778 866.121C16.0284 865.97 16.2088 865.895 16.419 865.895C16.6293 865.895 16.8097 865.97 16.9602 866.121C17.1108 866.271 17.1861 866.452 17.1861 866.662C17.1861 866.801 17.1506 866.929 17.0795 867.046C17.0114 867.162 16.919 867.256 16.8026 867.327C16.6889 867.395 16.5611 867.429 16.419 867.429ZM16.419 863.014C16.2088 863.014 16.0284 862.939 15.8778 862.788C15.7273 862.638 15.652 862.457 15.652 862.247C15.652 862.037 15.7273 861.857 15.8778 861.706C16.0284 861.555 16.2088 861.48 16.419 861.48C16.6293 861.48 16.8097 861.555 16.9602 861.706C17.1108 861.857 17.1861 862.037 17.1861 862.247C17.1861 862.386 17.1506 862.514 17.0795 862.631C17.0114 862.747 16.919 862.841 16.8026 862.912C16.6889 862.98 16.5611 863.014 16.419 863.014ZM21.8203 868.665C21.1783 868.665 20.6314 868.49 20.1797 868.141C19.728 867.788 19.3828 867.278 19.1442 866.611C18.9055 865.94 18.7862 865.131 18.7862 864.182C18.7862 863.239 18.9055 862.433 19.1442 861.766C19.3857 861.095 19.7322 860.584 20.1839 860.232C20.6385 859.876 21.1839 859.699 21.8203 859.699C22.4567 859.699 23.0007 859.876 23.4524 860.232C23.907 860.584 24.2536 861.095 24.4922 861.766C24.7337 862.433 24.8544 863.239 24.8544 864.182C24.8544 865.131 24.7351 865.94 24.4964 866.611C24.2578 867.278 23.9126 867.788 23.4609 868.141C23.0092 868.49 22.4624 868.665 21.8203 868.665ZM21.8203 867.727C22.4567 867.727 22.951 867.421 23.3033 866.807C23.6555 866.193 23.8317 865.318 23.8317 864.182C23.8317 863.426 23.7507 862.783 23.5888 862.251C23.4297 861.72 23.1996 861.315 22.8984 861.037C22.6001 860.759 22.2408 860.619 21.8203 860.619C21.1896 860.619 20.6967 860.93 20.3416 861.553C19.9865 862.172 19.8089 863.048 19.8089 864.182C19.8089 864.938 19.8885 865.58 20.0476 866.108C20.2067 866.636 20.4354 867.038 20.7337 867.314C21.0348 867.59 21.397 867.727 21.8203 867.727ZM29.3203 868.665C28.6783 868.665 28.1314 868.49 27.6797 868.141C27.228 867.788 26.8828 867.278 26.6442 866.611C26.4055 865.94 26.2862 865.131 26.2862 864.182C26.2862 863.239 26.4055 862.433 26.6442 861.766C26.8857 861.095 27.2322 860.584 27.6839 860.232C28.1385 859.876 28.6839 859.699 29.3203 859.699C29.9567 859.699 30.5007 859.876 30.9524 860.232C31.407 860.584 31.7536 861.095 31.9922 861.766C32.2337 862.433 32.3544 863.239 32.3544 864.182C32.3544 865.131 32.2351 865.94 31.9964 866.611C31.7578 867.278 31.4126 867.788 30.9609 868.141C30.5092 868.49 29.9624 868.665 29.3203 868.665ZM29.3203 867.727C29.9567 867.727 30.451 867.421 30.8033 866.807C31.1555 866.193 31.3317 865.318 31.3317 864.182C31.3317 863.426 31.2507 862.783 31.0888 862.251C30.9297 861.72 30.6996 861.315 30.3984 861.037C30.1001 860.759 29.7408 860.619 29.3203 860.619C28.6896 860.619 28.1967 860.93 27.8416 861.553C27.4865 862.172 27.3089 863.048 27.3089 864.182C27.3089 864.938 27.3885 865.58 27.5476 866.108C27.7067 866.636 27.9354 867.038 28.2337 867.314C28.5348 867.59 28.897 867.727 29.3203 867.727Z" fill="#9CA3AF"/>
<line y1="963.273" x2="200" y2="963.273" stroke="#1F2937" stroke-width="2"/>
<path d="M0.903409 960.273V959.506L3.78409 956.352C4.12216 955.983 4.40057 955.662 4.61932 955.389C4.83807 955.114 5 954.855 5.10511 954.614C5.21307 954.369 5.26705 954.114 5.26705 953.847C5.26705 953.54 5.19318 953.274 5.04545 953.05C4.90057 952.825 4.7017 952.652 4.44886 952.53C4.19602 952.408 3.91193 952.347 3.59659 952.347C3.26136 952.347 2.96875 952.416 2.71875 952.555C2.47159 952.692 2.27983 952.884 2.14347 953.131C2.00994 953.378 1.94318 953.668 1.94318 954H0.9375C0.9375 953.489 1.0554 953.04 1.29119 952.654C1.52699 952.267 1.84801 951.966 2.25426 951.75C2.66335 951.534 3.12216 951.426 3.63068 951.426C4.14205 951.426 4.59517 951.534 4.99006 951.75C5.38494 951.966 5.6946 952.257 5.91903 952.624C6.14347 952.99 6.25568 953.398 6.25568 953.847C6.25568 954.168 6.19744 954.482 6.08097 954.788C5.96733 955.092 5.76847 955.432 5.48438 955.807C5.20312 956.179 4.8125 956.634 4.3125 957.171L2.35227 959.267V959.335H6.40909V960.273H0.903409ZM11.2372 951.546V960.273H10.1804V952.654H10.1293L7.99858 954.068V952.994L10.1804 951.546H11.2372ZM14.4972 959.156C14.2869 959.156 14.1065 959.081 13.956 958.93C13.8054 958.78 13.7301 958.6 13.7301 958.389C13.7301 958.179 13.8054 957.999 13.956 957.848C14.1065 957.698 14.2869 957.622 14.4972 957.622C14.7074 957.622 14.8878 957.698 15.0384 957.848C15.1889 957.999 15.2642 958.179 15.2642 958.389C15.2642 958.529 15.2287 958.656 15.1577 958.773C15.0895 958.889 14.9972 958.983 14.8807 959.054C14.767 959.122 14.6392 959.156 14.4972 959.156ZM14.4972 954.742C14.2869 954.742 14.1065 954.666 13.956 954.516C13.8054 954.365 13.7301 954.185 13.7301 953.975C13.7301 953.764 13.8054 953.584 13.956 953.433C14.1065 953.283 14.2869 953.207 14.4972 953.207C14.7074 953.207 14.8878 953.283 15.0384 953.433C15.1889 953.584 15.2642 953.764 15.2642 953.975C15.2642 954.114 15.2287 954.242 15.1577 954.358C15.0895 954.475 14.9972 954.568 14.8807 954.639C14.767 954.707 14.6392 954.742 14.4972 954.742ZM19.8984 960.392C19.2564 960.392 18.7095 960.217 18.2578 959.868C17.8061 959.516 17.4609 959.006 17.2223 958.338C16.9837 957.668 16.8643 956.858 16.8643 955.909C16.8643 954.966 16.9837 954.161 17.2223 953.493C17.4638 952.823 17.8104 952.311 18.2621 951.959C18.7166 951.604 19.2621 951.426 19.8984 951.426C20.5348 951.426 21.0788 951.604 21.5305 951.959C21.9851 952.311 22.3317 952.823 22.5703 953.493C22.8118 954.161 22.9325 954.966 22.9325 955.909C22.9325 956.858 22.8132 957.668 22.5746 958.338C22.3359 959.006 21.9908 959.516 21.5391 959.868C21.0874 960.217 20.5405 960.392 19.8984 960.392ZM19.8984 959.455C20.5348 959.455 21.0291 959.148 21.3814 958.534C21.7337 957.921 21.9098 957.046 21.9098 955.909C21.9098 955.154 21.8288 954.51 21.6669 953.979C21.5078 953.448 21.2777 953.043 20.9766 952.764C20.6783 952.486 20.3189 952.347 19.8984 952.347C19.2678 952.347 18.7749 952.658 18.4197 953.28C18.0646 953.899 17.8871 954.776 17.8871 955.909C17.8871 956.665 17.9666 957.307 18.1257 957.835C18.2848 958.364 18.5135 958.766 18.8118 959.041C19.1129 959.317 19.4751 959.455 19.8984 959.455ZM27.3984 960.392C26.7564 960.392 26.2095 960.217 25.7578 959.868C25.3061 959.516 24.9609 959.006 24.7223 958.338C24.4837 957.668 24.3643 956.858 24.3643 955.909C24.3643 954.966 24.4837 954.161 24.7223 953.493C24.9638 952.823 25.3104 952.311 25.7621 951.959C26.2166 951.604 26.7621 951.426 27.3984 951.426C28.0348 951.426 28.5788 951.604 29.0305 951.959C29.4851 952.311 29.8317 952.823 30.0703 953.493C30.3118 954.161 30.4325 954.966 30.4325 955.909C30.4325 956.858 30.3132 957.668 30.0746 958.338C29.8359 959.006 29.4908 959.516 29.0391 959.868C28.5874 960.217 28.0405 960.392 27.3984 960.392ZM27.3984 959.455C28.0348 959.455 28.5291 959.148 28.8814 958.534C29.2337 957.921 29.4098 957.046 29.4098 955.909C29.4098 955.154 29.3288 954.51 29.1669 953.979C29.0078 953.448 28.7777 953.043 28.4766 952.764C28.1783 952.486 27.8189 952.347 27.3984 952.347C26.7678 952.347 26.2749 952.658 25.9197 953.28C25.5646 953.899 25.3871 954.776 25.3871 955.909C25.3871 956.665 25.4666 957.307 25.6257 957.835C25.7848 958.364 26.0135 958.766 26.3118 959.041C26.6129 959.317 26.9751 959.455 27.3984 959.455Z" fill="#9CA3AF"/>
<line y1="1055" x2="200" y2="1055" stroke="#1F2937" stroke-width="2"/>
<path d="M0.903409 1052V1051.23L3.78409 1048.08C4.12216 1047.71 4.40057 1047.39 4.61932 1047.12C4.83807 1046.84 5 1046.58 5.10511 1046.34C5.21307 1046.1 5.26705 1045.84 5.26705 1045.57C5.26705 1045.27 5.19318 1045 5.04545 1044.78C4.90057 1044.55 4.7017 1044.38 4.44886 1044.26C4.19602 1044.14 3.91193 1044.07 3.59659 1044.07C3.26136 1044.07 2.96875 1044.14 2.71875 1044.28C2.47159 1044.42 2.27983 1044.61 2.14347 1044.86C2.00994 1045.11 1.94318 1045.4 1.94318 1045.73H0.9375C0.9375 1045.22 1.0554 1044.77 1.29119 1044.38C1.52699 1043.99 1.84801 1043.69 2.25426 1043.48C2.66335 1043.26 3.12216 1043.15 3.63068 1043.15C4.14205 1043.15 4.59517 1043.26 4.99006 1043.48C5.38494 1043.69 5.6946 1043.98 5.91903 1044.35C6.14347 1044.72 6.25568 1045.13 6.25568 1045.57C6.25568 1045.9 6.19744 1046.21 6.08097 1046.52C5.96733 1046.82 5.76847 1047.16 5.48438 1047.53C5.20312 1047.91 4.8125 1048.36 4.3125 1048.9L2.35227 1050.99V1051.06H6.40909V1052H0.903409ZM8.16903 1052V1051.23L11.0497 1048.08C11.3878 1047.71 11.6662 1047.39 11.8849 1047.12C12.1037 1046.84 12.2656 1046.58 12.3707 1046.34C12.4787 1046.1 12.5327 1045.84 12.5327 1045.57C12.5327 1045.27 12.4588 1045 12.3111 1044.78C12.1662 1044.55 11.9673 1044.38 11.7145 1044.26C11.4616 1044.14 11.1776 1044.07 10.8622 1044.07C10.527 1044.07 10.2344 1044.14 9.98438 1044.28C9.73722 1044.42 9.54545 1044.61 9.40909 1044.86C9.27557 1045.11 9.20881 1045.4 9.20881 1045.73H8.20312C8.20312 1045.22 8.32102 1044.77 8.55682 1044.38C8.79261 1043.99 9.11364 1043.69 9.51989 1043.48C9.92898 1043.26 10.3878 1043.15 10.8963 1043.15C11.4077 1043.15 11.8608 1043.26 12.2557 1043.48C12.6506 1043.69 12.9602 1043.98 13.1847 1044.35C13.4091 1044.72 13.5213 1045.13 13.5213 1045.57C13.5213 1045.9 13.4631 1046.21 13.3466 1046.52C13.233 1046.82 13.0341 1047.16 12.75 1047.53C12.4688 1047.91 12.0781 1048.36 11.5781 1048.9L9.6179 1050.99V1051.06H13.6747V1052H8.16903ZM16.1847 1050.88C15.9744 1050.88 15.794 1050.81 15.6435 1050.66C15.4929 1050.51 15.4176 1050.33 15.4176 1050.12C15.4176 1049.91 15.4929 1049.73 15.6435 1049.58C15.794 1049.42 15.9744 1049.35 16.1847 1049.35C16.3949 1049.35 16.5753 1049.42 16.7259 1049.58C16.8764 1049.73 16.9517 1049.91 16.9517 1050.12C16.9517 1050.26 16.9162 1050.38 16.8452 1050.5C16.777 1050.62 16.6847 1050.71 16.5682 1050.78C16.4545 1050.85 16.3267 1050.88 16.1847 1050.88ZM16.1847 1046.47C15.9744 1046.47 15.794 1046.39 15.6435 1046.24C15.4929 1046.09 15.4176 1045.91 15.4176 1045.7C15.4176 1045.49 15.4929 1045.31 15.6435 1045.16C15.794 1045.01 15.9744 1044.93 16.1847 1044.93C16.3949 1044.93 16.5753 1045.01 16.7259 1045.16C16.8764 1045.31 16.9517 1045.49 16.9517 1045.7C16.9517 1045.84 16.9162 1045.97 16.8452 1046.09C16.777 1046.2 16.6847 1046.3 16.5682 1046.37C16.4545 1046.43 16.3267 1046.47 16.1847 1046.47ZM21.5859 1052.12C20.9439 1052.12 20.397 1051.94 19.9453 1051.6C19.4936 1051.24 19.1484 1050.73 18.9098 1050.07C18.6712 1049.4 18.5518 1048.59 18.5518 1047.64C18.5518 1046.69 18.6712 1045.89 18.9098 1045.22C19.1513 1044.55 19.4979 1044.04 19.9496 1043.69C20.4041 1043.33 20.9496 1043.15 21.5859 1043.15C22.2223 1043.15 22.7663 1043.33 23.218 1043.69C23.6726 1044.04 24.0192 1044.55 24.2578 1045.22C24.4993 1045.89 24.62 1046.69 24.62 1047.64C24.62 1048.59 24.5007 1049.4 24.2621 1050.07C24.0234 1050.73 23.6783 1051.24 23.2266 1051.6C22.7749 1051.94 22.228 1052.12 21.5859 1052.12ZM21.5859 1051.18C22.2223 1051.18 22.7166 1050.88 23.0689 1050.26C23.4212 1049.65 23.5973 1048.77 23.5973 1047.64C23.5973 1046.88 23.5163 1046.24 23.3544 1045.71C23.1953 1045.17 22.9652 1044.77 22.6641 1044.49C22.3658 1044.21 22.0064 1044.07 21.5859 1044.07C20.9553 1044.07 20.4624 1044.39 20.1072 1045.01C19.7521 1045.63 19.5746 1046.5 19.5746 1047.64C19.5746 1048.39 19.6541 1049.03 19.8132 1049.56C19.9723 1050.09 20.201 1050.49 20.4993 1050.77C20.8004 1051.04 21.1626 1051.18 21.5859 1051.18ZM29.0859 1052.12C28.4439 1052.12 27.897 1051.94 27.4453 1051.6C26.9936 1051.24 26.6484 1050.73 26.4098 1050.07C26.1712 1049.4 26.0518 1048.59 26.0518 1047.64C26.0518 1046.69 26.1712 1045.89 26.4098 1045.22C26.6513 1044.55 26.9979 1044.04 27.4496 1043.69C27.9041 1043.33 28.4496 1043.15 29.0859 1043.15C29.7223 1043.15 30.2663 1043.33 30.718 1043.69C31.1726 1044.04 31.5192 1044.55 31.7578 1045.22C31.9993 1045.89 32.12 1046.69 32.12 1047.64C32.12 1048.59 32.0007 1049.4 31.7621 1050.07C31.5234 1050.73 31.1783 1051.24 30.7266 1051.6C30.2749 1051.94 29.728 1052.12 29.0859 1052.12ZM29.0859 1051.18C29.7223 1051.18 30.2166 1050.88 30.5689 1050.26C30.9212 1049.65 31.0973 1048.77 31.0973 1047.64C31.0973 1046.88 31.0163 1046.24 30.8544 1045.71C30.6953 1045.17 30.4652 1044.77 30.1641 1044.49C29.8658 1044.21 29.5064 1044.07 29.0859 1044.07C28.4553 1044.07 27.9624 1044.39 27.6072 1045.01C27.2521 1045.63 27.0746 1046.5 27.0746 1047.64C27.0746 1048.39 27.1541 1049.03 27.3132 1049.56C27.4723 1050.09 27.701 1050.49 27.9993 1050.77C28.3004 1051.04 28.6626 1051.18 29.0859 1051.18Z" fill="#9CA3AF"/>
</g>
<defs>
<clipPath id="clip0_1_2">
<rect width="200" height="1100" fill="white"/>
</clipPath>
</defs>
</svg>
