<svg width="200" height="1000" viewBox="0 0 200 1000" fill="none" xmlns="http://www.w3.org/2000/svg">
<rect width="200" height="900" rx="30" fill="#111827"/>
<line y1="46" x2="200" y2="46" stroke="#1F2937" stroke-width="2"/>
<path d="M3.97159 34.2727V43H2.91477V35.3807H2.86364L0.732955 36.7955V35.7216L2.91477 34.2727H3.97159ZM9.54972 34.2727V43H8.4929V35.3807H8.44176L6.31108 36.7955V35.7216L8.4929 34.2727H9.54972ZM12.8097 41.8835C12.5994 41.8835 12.419 41.8082 12.2685 41.6577C12.1179 41.5071 12.0426 41.3267 12.0426 41.1165C12.0426 40.9062 12.1179 40.7259 12.2685 40.5753C12.419 40.4247 12.5994 40.3494 12.8097 40.3494C13.0199 40.3494 13.2003 40.4247 13.3509 40.5753C13.5014 40.7259 13.5767 40.9062 13.5767 41.1165C13.5767 41.2557 13.5412 41.3835 13.4702 41.5C13.402 41.6165 13.3097 41.7102 13.1932 41.7812C13.0795 41.8494 12.9517 41.8835 12.8097 41.8835ZM12.8097 37.4688C12.5994 37.4688 12.419 37.3935 12.2685 37.2429C12.1179 37.0923 12.0426 36.9119 12.0426 36.7017C12.0426 36.4915 12.1179 36.3111 12.2685 36.1605C12.419 36.0099 12.5994 35.9347 12.8097 35.9347C13.0199 35.9347 13.2003 36.0099 13.3509 36.1605C13.5014 36.3111 13.5767 36.4915 13.5767 36.7017C13.5767 36.8409 13.5412 36.9688 13.4702 37.0852C13.402 37.2017 13.3097 37.2955 13.1932 37.3665C13.0795 37.4347 12.9517 37.4688 12.8097 37.4688ZM18.2109 43.1193C17.5689 43.1193 17.022 42.9446 16.5703 42.5952C16.1186 42.2429 15.7734 41.733 15.5348 41.0653C15.2962 40.3949 15.1768 39.5852 15.1768 38.6364C15.1768 37.6932 15.2962 36.8878 15.5348 36.2202C15.7763 35.5497 16.1229 35.0384 16.5746 34.6861C17.0291 34.331 17.5746 34.1534 18.2109 34.1534C18.8473 34.1534 19.3913 34.331 19.843 34.6861C20.2976 35.0384 20.6442 35.5497 20.8828 36.2202C21.1243 36.8878 21.245 37.6932 21.245 38.6364C21.245 39.5852 21.1257 40.3949 20.8871 41.0653C20.6484 41.733 20.3033 42.2429 19.8516 42.5952C19.3999 42.9446 18.853 43.1193 18.2109 43.1193ZM18.2109 42.1818C18.8473 42.1818 19.3416 41.875 19.6939 41.2614C20.0462 40.6477 20.2223 39.7727 20.2223 38.6364C20.2223 37.8807 20.1413 37.2372 19.9794 36.706C19.8203 36.1747 19.5902 35.7699 19.2891 35.4915C18.9908 35.2131 18.6314 35.0739 18.2109 35.0739C17.5803 35.0739 17.0874 35.3849 16.7322 36.0071C16.3771 36.6264 16.1996 37.5028 16.1996 38.6364C16.1996 39.392 16.2791 40.0341 16.4382 40.5625C16.5973 41.0909 16.826 41.4929 17.1243 41.7685C17.4254 42.044 17.7876 42.1818 18.2109 42.1818ZM25.7109 43.1193C25.0689 43.1193 24.522 42.9446 24.0703 42.5952C23.6186 42.2429 23.2734 41.733 23.0348 41.0653C22.7962 40.3949 22.6768 39.5852 22.6768 38.6364C22.6768 37.6932 22.7962 36.8878 23.0348 36.2202C23.2763 35.5497 23.6229 35.0384 24.0746 34.6861C24.5291 34.331 25.0746 34.1534 25.7109 34.1534C26.3473 34.1534 26.8913 34.331 27.343 34.6861C27.7976 35.0384 28.1442 35.5497 28.3828 36.2202C28.6243 36.8878 28.745 37.6932 28.745 38.6364C28.745 39.5852 28.6257 40.3949 28.3871 41.0653C28.1484 41.733 27.8033 42.2429 27.3516 42.5952C26.8999 42.9446 26.353 43.1193 25.7109 43.1193ZM25.7109 42.1818C26.3473 42.1818 26.8416 41.875 27.1939 41.2614C27.5462 40.6477 27.7223 39.7727 27.7223 38.6364C27.7223 37.8807 27.6413 37.2372 27.4794 36.706C27.3203 36.1747 27.0902 35.7699 26.7891 35.4915C26.4908 35.2131 26.1314 35.0739 25.7109 35.0739C25.0803 35.0739 24.5874 35.3849 24.2322 36.0071C23.8771 36.6264 23.6996 37.5028 23.6996 38.6364C23.6996 39.392 23.7791 40.0341 23.9382 40.5625C24.0973 41.0909 24.326 41.4929 24.6243 41.7685C24.9254 42.044 25.2876 42.1818 25.7109 42.1818Z" fill="#9CA3AF"/>
<line y1="122" x2="200" y2="122" stroke="#1F2937" stroke-width="2"/>
<path d="M3.97159 110.273V119H2.91477V111.381H2.86364L0.732955 112.795V111.722L2.91477 110.273H3.97159ZM6.48153 119V118.233L9.36222 115.08C9.70028 114.71 9.97869 114.389 10.1974 114.116C10.4162 113.841 10.5781 113.582 10.6832 113.341C10.7912 113.097 10.8452 112.841 10.8452 112.574C10.8452 112.267 10.7713 112.001 10.6236 111.777C10.4787 111.553 10.2798 111.379 10.027 111.257C9.77415 111.135 9.49006 111.074 9.17472 111.074C8.83949 111.074 8.54688 111.143 8.29688 111.283C8.04972 111.419 7.85795 111.611 7.72159 111.858C7.58807 112.105 7.52131 112.395 7.52131 112.727H6.51562C6.51562 112.216 6.63352 111.767 6.86932 111.381C7.10511 110.994 7.42614 110.693 7.83239 110.477C8.24148 110.261 8.70028 110.153 9.20881 110.153C9.72017 110.153 10.1733 110.261 10.5682 110.477C10.9631 110.693 11.2727 110.984 11.4972 111.351C11.7216 111.717 11.8338 112.125 11.8338 112.574C11.8338 112.895 11.7756 113.209 11.6591 113.516C11.5455 113.82 11.3466 114.159 11.0625 114.534C10.7812 114.906 10.3906 115.361 9.89062 115.898L7.9304 117.994V118.062H11.9872V119H6.48153ZM14.4972 117.884C14.2869 117.884 14.1065 117.808 13.956 117.658C13.8054 117.507 13.7301 117.327 13.7301 117.116C13.7301 116.906 13.8054 116.726 13.956 116.575C14.1065 116.425 14.2869 116.349 14.4972 116.349C14.7074 116.349 14.8878 116.425 15.0384 116.575C15.1889 116.726 15.2642 116.906 15.2642 117.116C15.2642 117.256 15.2287 117.384 15.1577 117.5C15.0895 117.616 14.9972 117.71 14.8807 117.781C14.767 117.849 14.6392 117.884 14.4972 117.884ZM14.4972 113.469C14.2869 113.469 14.1065 113.393 13.956 113.243C13.8054 113.092 13.7301 112.912 13.7301 112.702C13.7301 112.491 13.8054 112.311 13.956 112.161C14.1065 112.01 14.2869 111.935 14.4972 111.935C14.7074 111.935 14.8878 112.01 15.0384 112.161C15.1889 112.311 15.2642 112.491 15.2642 112.702C15.2642 112.841 15.2287 112.969 15.1577 113.085C15.0895 113.202 14.9972 113.295 14.8807 113.366C14.767 113.435 14.6392 113.469 14.4972 113.469ZM19.8984 119.119C19.2564 119.119 18.7095 118.945 18.2578 118.595C17.8061 118.243 17.4609 117.733 17.2223 117.065C16.9837 116.395 16.8643 115.585 16.8643 114.636C16.8643 113.693 16.9837 112.888 17.2223 112.22C17.4638 111.55 17.8104 111.038 18.2621 110.686C18.7166 110.331 19.2621 110.153 19.8984 110.153C20.5348 110.153 21.0788 110.331 21.5305 110.686C21.9851 111.038 22.3317 111.55 22.5703 112.22C22.8118 112.888 22.9325 113.693 22.9325 114.636C22.9325 115.585 22.8132 116.395 22.5746 117.065C22.3359 117.733 21.9908 118.243 21.5391 118.595C21.0874 118.945 20.5405 119.119 19.8984 119.119ZM19.8984 118.182C20.5348 118.182 21.0291 117.875 21.3814 117.261C21.7337 116.648 21.9098 115.773 21.9098 114.636C21.9098 113.881 21.8288 113.237 21.6669 112.706C21.5078 112.175 21.2777 111.77 20.9766 111.491C20.6783 111.213 20.3189 111.074 19.8984 111.074C19.2678 111.074 18.7749 111.385 18.4197 112.007C18.0646 112.626 17.8871 113.503 17.8871 114.636C17.8871 115.392 17.9666 116.034 18.1257 116.562C18.2848 117.091 18.5135 117.493 18.8118 117.768C19.1129 118.044 19.4751 118.182 19.8984 118.182ZM27.3984 119.119C26.7564 119.119 26.2095 118.945 25.7578 118.595C25.3061 118.243 24.9609 117.733 24.7223 117.065C24.4837 116.395 24.3643 115.585 24.3643 114.636C24.3643 113.693 24.4837 112.888 24.7223 112.22C24.9638 111.55 25.3104 111.038 25.7621 110.686C26.2166 110.331 26.7621 110.153 27.3984 110.153C28.0348 110.153 28.5788 110.331 29.0305 110.686C29.4851 111.038 29.8317 111.55 30.0703 112.22C30.3118 112.888 30.4325 113.693 30.4325 114.636C30.4325 115.585 30.3132 116.395 30.0746 117.065C29.8359 117.733 29.4908 118.243 29.0391 118.595C28.5874 118.945 28.0405 119.119 27.3984 119.119ZM27.3984 118.182C28.0348 118.182 28.5291 117.875 28.8814 117.261C29.2337 116.648 29.4098 115.773 29.4098 114.636C29.4098 113.881 29.3288 113.237 29.1669 112.706C29.0078 112.175 28.7777 111.77 28.4766 111.491C28.1783 111.213 27.8189 111.074 27.3984 111.074C26.7678 111.074 26.2749 111.385 25.9197 112.007C25.5646 112.626 25.3871 113.503 25.3871 114.636C25.3871 115.392 25.4666 116.034 25.6257 116.562C25.7848 117.091 26.0135 117.493 26.3118 117.768C26.6129 118.044 26.9751 118.182 27.3984 118.182Z" fill="#9CA3AF"/>
<line y1="198" x2="200" y2="198" stroke="#1F2937" stroke-width="2"/>
<path d="M3.97159 186.273V195H2.91477V187.381H2.86364L0.732955 188.795V187.722L2.91477 186.273H3.97159ZM9.4304 195.119C8.8679 195.119 8.36648 195.023 7.92614 194.83C7.48864 194.636 7.14063 194.368 6.8821 194.024C6.62642 193.678 6.48722 193.276 6.46449 192.818H7.53835C7.56108 193.099 7.65767 193.342 7.82812 193.547C7.99858 193.749 8.22159 193.905 8.49716 194.016C8.77273 194.126 9.07813 194.182 9.41335 194.182C9.78835 194.182 10.1207 194.116 10.4105 193.986C10.7003 193.855 10.9276 193.673 11.0923 193.44C11.2571 193.207 11.3395 192.938 11.3395 192.631C11.3395 192.31 11.2599 192.027 11.1009 191.783C10.9418 191.536 10.7088 191.342 10.402 191.203C10.0952 191.064 9.72017 190.994 9.27699 190.994H8.57812V190.057H9.27699C9.62358 190.057 9.92756 189.994 10.1889 189.869C10.4531 189.744 10.6591 189.568 10.8068 189.341C10.9574 189.114 11.0327 188.847 11.0327 188.54C11.0327 188.244 10.9673 187.987 10.8366 187.768C10.706 187.55 10.5213 187.379 10.2827 187.257C10.0469 187.135 9.76847 187.074 9.44744 187.074C9.14631 187.074 8.86222 187.129 8.59517 187.24C8.33097 187.348 8.11506 187.506 7.94744 187.713C7.77983 187.918 7.68892 188.165 7.67472 188.455H6.65199C6.66903 187.997 6.80682 187.597 7.06534 187.253C7.32386 186.906 7.66193 186.636 8.07955 186.443C8.5 186.25 8.96165 186.153 9.46449 186.153C10.0043 186.153 10.4673 186.263 10.8537 186.482C11.2401 186.697 11.5369 186.983 11.7443 187.338C11.9517 187.693 12.0554 188.077 12.0554 188.489C12.0554 188.98 11.9261 189.399 11.6676 189.746C11.4119 190.092 11.0639 190.332 10.6236 190.466V190.534C11.1747 190.625 11.6051 190.859 11.9148 191.237C12.2244 191.612 12.3793 192.077 12.3793 192.631C12.3793 193.105 12.25 193.531 11.9915 193.909C11.7358 194.284 11.3864 194.58 10.9432 194.795C10.5 195.011 9.99574 195.119 9.4304 195.119ZM14.8722 193.884C14.6619 193.884 14.4815 193.808 14.331 193.658C14.1804 193.507 14.1051 193.327 14.1051 193.116C14.1051 192.906 14.1804 192.726 14.331 192.575C14.4815 192.425 14.6619 192.349 14.8722 192.349C15.0824 192.349 15.2628 192.425 15.4134 192.575C15.5639 192.726 15.6392 192.906 15.6392 193.116C15.6392 193.256 15.6037 193.384 15.5327 193.5C15.4645 193.616 15.3722 193.71 15.2557 193.781C15.142 193.849 15.0142 193.884 14.8722 193.884ZM14.8722 189.469C14.6619 189.469 14.4815 189.393 14.331 189.243C14.1804 189.092 14.1051 188.912 14.1051 188.702C14.1051 188.491 14.1804 188.311 14.331 188.161C14.4815 188.01 14.6619 187.935 14.8722 187.935C15.0824 187.935 15.2628 188.01 15.4134 188.161C15.5639 188.311 15.6392 188.491 15.6392 188.702C15.6392 188.841 15.6037 188.969 15.5327 189.085C15.4645 189.202 15.3722 189.295 15.2557 189.366C15.142 189.435 15.0142 189.469 14.8722 189.469ZM20.2734 195.119C19.6314 195.119 19.0845 194.945 18.6328 194.595C18.1811 194.243 17.8359 193.733 17.5973 193.065C17.3587 192.395 17.2393 191.585 17.2393 190.636C17.2393 189.693 17.3587 188.888 17.5973 188.22C17.8388 187.55 18.1854 187.038 18.6371 186.686C19.0916 186.331 19.6371 186.153 20.2734 186.153C20.9098 186.153 21.4538 186.331 21.9055 186.686C22.3601 187.038 22.7067 187.55 22.9453 188.22C23.1868 188.888 23.3075 189.693 23.3075 190.636C23.3075 191.585 23.1882 192.395 22.9496 193.065C22.7109 193.733 22.3658 194.243 21.9141 194.595C21.4624 194.945 20.9155 195.119 20.2734 195.119ZM20.2734 194.182C20.9098 194.182 21.4041 193.875 21.7564 193.261C22.1087 192.648 22.2848 191.773 22.2848 190.636C22.2848 189.881 22.2038 189.237 22.0419 188.706C21.8828 188.175 21.6527 187.77 21.3516 187.491C21.0533 187.213 20.6939 187.074 20.2734 187.074C19.6428 187.074 19.1499 187.385 18.7947 188.007C18.4396 188.626 18.2621 189.503 18.2621 190.636C18.2621 191.392 18.3416 192.034 18.5007 192.562C18.6598 193.091 18.8885 193.493 19.1868 193.768C19.4879 194.044 19.8501 194.182 20.2734 194.182ZM27.7734 195.119C27.1314 195.119 26.5845 194.945 26.1328 194.595C25.6811 194.243 25.3359 193.733 25.0973 193.065C24.8587 192.395 24.7393 191.585 24.7393 190.636C24.7393 189.693 24.8587 188.888 25.0973 188.22C25.3388 187.55 25.6854 187.038 26.1371 186.686C26.5916 186.331 27.1371 186.153 27.7734 186.153C28.4098 186.153 28.9538 186.331 29.4055 186.686C29.8601 187.038 30.2067 187.55 30.4453 188.22C30.6868 188.888 30.8075 189.693 30.8075 190.636C30.8075 191.585 30.6882 192.395 30.4496 193.065C30.2109 193.733 29.8658 194.243 29.4141 194.595C28.9624 194.945 28.4155 195.119 27.7734 195.119ZM27.7734 194.182C28.4098 194.182 28.9041 193.875 29.2564 193.261C29.6087 192.648 29.7848 191.773 29.7848 190.636C29.7848 189.881 29.7038 189.237 29.5419 188.706C29.3828 188.175 29.1527 187.77 28.8516 187.491C28.5533 187.213 28.1939 187.074 27.7734 187.074C27.1428 187.074 26.6499 187.385 26.2947 188.007C25.9396 188.626 25.7621 189.503 25.7621 190.636C25.7621 191.392 25.8416 192.034 26.0007 192.562C26.1598 193.091 26.3885 193.493 26.6868 193.768C26.9879 194.044 27.3501 194.182 27.7734 194.182Z" fill="#9CA3AF"/>
<line y1="274" x2="200" y2="274" stroke="#1F2937" stroke-width="2"/>
<path d="M3.97159 262.273V271H2.91477V263.381H2.86364L0.732955 264.795V263.722L2.91477 262.273H3.97159ZM6.27699 269.21V268.341L10.1122 262.273H10.7429V263.619H10.3168L7.41903 268.205V268.273H12.5838V269.21H6.27699ZM10.3849 271V268.946V268.541V262.273H11.3906V271H10.3849ZM14.9308 269.884C14.7205 269.884 14.5401 269.808 14.3896 269.658C14.239 269.507 14.1637 269.327 14.1637 269.116C14.1637 268.906 14.239 268.726 14.3896 268.575C14.5401 268.425 14.7205 268.349 14.9308 268.349C15.141 268.349 15.3214 268.425 15.4719 268.575C15.6225 268.726 15.6978 268.906 15.6978 269.116C15.6978 269.256 15.6623 269.384 15.5913 269.5C15.5231 269.616 15.4308 269.71 15.3143 269.781C15.2006 269.849 15.0728 269.884 14.9308 269.884ZM14.9308 265.469C14.7205 265.469 14.5401 265.393 14.3896 265.243C14.239 265.092 14.1637 264.912 14.1637 264.702C14.1637 264.491 14.239 264.311 14.3896 264.161C14.5401 264.01 14.7205 263.935 14.9308 263.935C15.141 263.935 15.3214 264.01 15.4719 264.161C15.6225 264.311 15.6978 264.491 15.6978 264.702C15.6978 264.841 15.6623 264.969 15.5913 265.085C15.5231 265.202 15.4308 265.295 15.3143 265.366C15.2006 265.435 15.0728 265.469 14.9308 265.469ZM20.332 271.119C19.69 271.119 19.1431 270.945 18.6914 270.595C18.2397 270.243 17.8945 269.733 17.6559 269.065C17.4173 268.395 17.2979 267.585 17.2979 266.636C17.2979 265.693 17.4173 264.888 17.6559 264.22C17.8974 263.55 18.244 263.038 18.6957 262.686C19.1502 262.331 19.6957 262.153 20.332 262.153C20.9684 262.153 21.5124 262.331 21.9641 262.686C22.4187 263.038 22.7653 263.55 23.0039 264.22C23.2454 264.888 23.3661 265.693 23.3661 266.636C23.3661 267.585 23.2468 268.395 23.0082 269.065C22.7695 269.733 22.4244 270.243 21.9727 270.595C21.521 270.945 20.9741 271.119 20.332 271.119ZM20.332 270.182C20.9684 270.182 21.4627 269.875 21.815 269.261C22.1673 268.648 22.3434 267.773 22.3434 266.636C22.3434 265.881 22.2624 265.237 22.1005 264.706C21.9414 264.175 21.7113 263.77 21.4102 263.491C21.1119 263.213 20.7525 263.074 20.332 263.074C19.7013 263.074 19.2085 263.385 18.8533 264.007C18.4982 264.626 18.3207 265.503 18.3207 266.636C18.3207 267.392 18.4002 268.034 18.5593 268.562C18.7184 269.091 18.9471 269.493 19.2454 269.768C19.5465 270.044 19.9087 270.182 20.332 270.182ZM27.832 271.119C27.19 271.119 26.6431 270.945 26.1914 270.595C25.7397 270.243 25.3945 269.733 25.1559 269.065C24.9173 268.395 24.7979 267.585 24.7979 266.636C24.7979 265.693 24.9173 264.888 25.1559 264.22C25.3974 263.55 25.744 263.038 26.1957 262.686C26.6502 262.331 27.1957 262.153 27.832 262.153C28.4684 262.153 29.0124 262.331 29.4641 262.686C29.9187 263.038 30.2653 263.55 30.5039 264.22C30.7454 264.888 30.8661 265.693 30.8661 266.636C30.8661 267.585 30.7468 268.395 30.5082 269.065C30.2695 269.733 29.9244 270.243 29.4727 270.595C29.021 270.945 28.4741 271.119 27.832 271.119ZM27.832 270.182C28.4684 270.182 28.9627 269.875 29.315 269.261C29.6673 268.648 29.8434 267.773 29.8434 266.636C29.8434 265.881 29.7624 265.237 29.6005 264.706C29.4414 264.175 29.2113 263.77 28.9102 263.491C28.6119 263.213 28.2525 263.074 27.832 263.074C27.2013 263.074 26.7085 263.385 26.3533 264.007C25.9982 264.626 25.8207 265.503 25.8207 266.636C25.8207 267.392 25.9002 268.034 26.0593 268.562C26.2184 269.091 26.4471 269.493 26.7454 269.768C27.0465 270.044 27.4087 270.182 27.832 270.182Z" fill="#9CA3AF"/>
<line y1="350" x2="200" y2="350" stroke="#1F2937" stroke-width="2"/>
<path d="M3.97159 338.273V347H2.91477V339.381H2.86364L0.732955 340.795V339.722L2.91477 338.273H3.97159ZM9.20881 347.119C8.70881 347.119 8.25852 347.02 7.85795 346.821C7.45739 346.622 7.13636 346.349 6.89489 346.003C6.65341 345.656 6.52131 345.261 6.49858 344.818H7.52131C7.56108 345.213 7.74006 345.54 8.05824 345.798C8.37926 346.054 8.76278 346.182 9.20881 346.182C9.56676 346.182 9.88494 346.098 10.1634 345.93C10.4446 345.763 10.6648 345.533 10.8239 345.24C10.9858 344.945 11.0668 344.611 11.0668 344.239C11.0668 343.858 10.983 343.518 10.8153 343.22C10.6506 342.919 10.4233 342.682 10.1335 342.509C9.84375 342.335 9.51278 342.247 9.14062 342.244C8.87358 342.241 8.59943 342.283 8.31818 342.368C8.03693 342.45 7.8054 342.557 7.62358 342.688L6.63494 342.568L7.16335 338.273H11.6974V339.21H8.04972L7.7429 341.784H7.79403C7.97301 341.642 8.19744 341.524 8.46733 341.43C8.73722 341.337 9.01847 341.29 9.31108 341.29C9.84517 341.29 10.321 341.418 10.7386 341.673C11.1591 341.926 11.4886 342.273 11.7273 342.713C11.9688 343.153 12.0895 343.656 12.0895 344.222C12.0895 344.778 11.9645 345.276 11.7145 345.713C11.4673 346.148 11.1264 346.491 10.6918 346.744C10.2571 346.994 9.76278 347.119 9.20881 347.119ZM14.5323 345.884C14.3221 345.884 14.1417 345.808 13.9911 345.658C13.8406 345.507 13.7653 345.327 13.7653 345.116C13.7653 344.906 13.8406 344.726 13.9911 344.575C14.1417 344.425 14.3221 344.349 14.5323 344.349C14.7425 344.349 14.9229 344.425 15.0735 344.575C15.2241 344.726 15.2994 344.906 15.2994 345.116C15.2994 345.256 15.2638 345.384 15.1928 345.5C15.1246 345.616 15.0323 345.71 14.9158 345.781C14.8022 345.849 14.6744 345.884 14.5323 345.884ZM14.5323 341.469C14.3221 341.469 14.1417 341.393 13.9911 341.243C13.8406 341.092 13.7653 340.912 13.7653 340.702C13.7653 340.491 13.8406 340.311 13.9911 340.161C14.1417 340.01 14.3221 339.935 14.5323 339.935C14.7425 339.935 14.9229 340.01 15.0735 340.161C15.2241 340.311 15.2994 340.491 15.2994 340.702C15.2994 340.841 15.2638 340.969 15.1928 341.085C15.1246 341.202 15.0323 341.295 14.9158 341.366C14.8022 341.435 14.6744 341.469 14.5323 341.469ZM19.9336 347.119C19.2915 347.119 18.7447 346.945 18.293 346.595C17.8413 346.243 17.4961 345.733 17.2575 345.065C17.0188 344.395 16.8995 343.585 16.8995 342.636C16.8995 341.693 17.0188 340.888 17.2575 340.22C17.4989 339.55 17.8455 339.038 18.2972 338.686C18.7518 338.331 19.2972 338.153 19.9336 338.153C20.57 338.153 21.114 338.331 21.5657 338.686C22.0202 339.038 22.3668 339.55 22.6055 340.22C22.8469 340.888 22.9677 341.693 22.9677 342.636C22.9677 343.585 22.8484 344.395 22.6097 345.065C22.3711 345.733 22.0259 346.243 21.5742 346.595C21.1225 346.945 20.5756 347.119 19.9336 347.119ZM19.9336 346.182C20.57 346.182 21.0643 345.875 21.4165 345.261C21.7688 344.648 21.945 343.773 21.945 342.636C21.945 341.881 21.864 341.237 21.7021 340.706C21.543 340.175 21.3129 339.77 21.0117 339.491C20.7134 339.213 20.354 339.074 19.9336 339.074C19.3029 339.074 18.81 339.385 18.4549 340.007C18.0998 340.626 17.9222 341.503 17.9222 342.636C17.9222 343.392 18.0018 344.034 18.1609 344.562C18.32 345.091 18.5487 345.493 18.8469 345.768C19.1481 346.044 19.5103 346.182 19.9336 346.182ZM27.4336 347.119C26.7915 347.119 26.2447 346.945 25.793 346.595C25.3413 346.243 24.9961 345.733 24.7575 345.065C24.5188 344.395 24.3995 343.585 24.3995 342.636C24.3995 341.693 24.5188 340.888 24.7575 340.22C24.9989 339.55 25.3455 339.038 25.7972 338.686C26.2518 338.331 26.7972 338.153 27.4336 338.153C28.07 338.153 28.614 338.331 29.0657 338.686C29.5202 339.038 29.8668 339.55 30.1055 340.22C30.3469 340.888 30.4677 341.693 30.4677 342.636C30.4677 343.585 30.3484 344.395 30.1097 345.065C29.8711 345.733 29.5259 346.243 29.0742 346.595C28.6225 346.945 28.0756 347.119 27.4336 347.119ZM27.4336 346.182C28.07 346.182 28.5643 345.875 28.9165 345.261C29.2688 344.648 29.445 343.773 29.445 342.636C29.445 341.881 29.364 341.237 29.2021 340.706C29.043 340.175 28.8129 339.77 28.5117 339.491C28.2134 339.213 27.854 339.074 27.4336 339.074C26.8029 339.074 26.31 339.385 25.9549 340.007C25.5998 340.626 25.4222 341.503 25.4222 342.636C25.4222 343.392 25.5018 344.034 25.6609 344.562C25.82 345.091 26.0487 345.493 26.3469 345.768C26.6481 346.044 27.0103 346.182 27.4336 346.182Z" fill="#9CA3AF"/>
<line y1="426" x2="200" y2="426" stroke="#1F2937" stroke-width="2"/>
<path d="M3.97159 414.273V423H2.91477V415.381H2.86364L0.732955 416.795V415.722L2.91477 414.273H3.97159ZM9.37926 423.119C9.02131 423.114 8.66335 423.045 8.3054 422.915C7.94744 422.784 7.62074 422.564 7.32528 422.254C7.02983 421.942 6.79261 421.52 6.61364 420.989C6.43466 420.455 6.34517 419.784 6.34517 418.977C6.34517 418.205 6.41761 417.52 6.5625 416.923C6.70739 416.324 6.91761 415.82 7.19318 415.411C7.46875 414.999 7.80114 414.686 8.19034 414.473C8.58239 414.26 9.02415 414.153 9.51562 414.153C10.0043 414.153 10.4389 414.251 10.8196 414.447C11.2031 414.641 11.5156 414.911 11.7571 415.257C11.9986 415.604 12.1548 416.003 12.2259 416.455H11.1861C11.0895 416.062 10.902 415.737 10.6236 415.479C10.3452 415.22 9.97585 415.091 9.51562 415.091C8.83949 415.091 8.30682 415.385 7.91761 415.973C7.53125 416.561 7.33665 417.386 7.33381 418.449H7.40199C7.56108 418.207 7.75 418.001 7.96875 417.831C8.19034 417.658 8.43466 417.524 8.7017 417.43C8.96875 417.337 9.25142 417.29 9.54972 417.29C10.0497 417.29 10.5071 417.415 10.9219 417.665C11.3366 417.912 11.669 418.254 11.919 418.692C12.169 419.126 12.294 419.625 12.294 420.188C12.294 420.727 12.1733 421.222 11.9318 421.67C11.6903 422.116 11.3509 422.472 10.9134 422.736C10.4787 422.997 9.96733 423.125 9.37926 423.119ZM9.37926 422.182C9.73722 422.182 10.0582 422.092 10.3423 421.913C10.6293 421.734 10.8551 421.494 11.0199 421.193C11.1875 420.892 11.2713 420.557 11.2713 420.188C11.2713 419.827 11.1903 419.499 11.0284 419.203C10.8693 418.905 10.6491 418.668 10.3679 418.491C10.0895 418.315 9.77131 418.227 9.41335 418.227C9.14347 418.227 8.89205 418.281 8.65909 418.389C8.42614 418.494 8.22159 418.639 8.04545 418.824C7.87216 419.009 7.7358 419.22 7.63636 419.459C7.53693 419.695 7.48722 419.943 7.48722 420.205C7.48722 420.551 7.56818 420.875 7.73011 421.176C7.89489 421.477 8.11932 421.72 8.40341 421.905C8.69034 422.089 9.01562 422.182 9.37926 422.182ZM14.7198 421.884C14.5096 421.884 14.3292 421.808 14.1786 421.658C14.0281 421.507 13.9528 421.327 13.9528 421.116C13.9528 420.906 14.0281 420.726 14.1786 420.575C14.3292 420.425 14.5096 420.349 14.7198 420.349C14.93 420.349 15.1104 420.425 15.261 420.575C15.4116 420.726 15.4869 420.906 15.4869 421.116C15.4869 421.256 15.4513 421.384 15.3803 421.5C15.3121 421.616 15.2198 421.71 15.1033 421.781C14.9897 421.849 14.8619 421.884 14.7198 421.884ZM14.7198 417.469C14.5096 417.469 14.3292 417.393 14.1786 417.243C14.0281 417.092 13.9528 416.912 13.9528 416.702C13.9528 416.491 14.0281 416.311 14.1786 416.161C14.3292 416.01 14.5096 415.935 14.7198 415.935C14.93 415.935 15.1104 416.01 15.261 416.161C15.4116 416.311 15.4869 416.491 15.4869 416.702C15.4869 416.841 15.4513 416.969 15.3803 417.085C15.3121 417.202 15.2198 417.295 15.1033 417.366C14.9897 417.435 14.8619 417.469 14.7198 417.469ZM20.1211 423.119C19.479 423.119 18.9322 422.945 18.4805 422.595C18.0288 422.243 17.6836 421.733 17.445 421.065C17.2063 420.395 17.087 419.585 17.087 418.636C17.087 417.693 17.2063 416.888 17.445 416.22C17.6864 415.55 18.033 415.038 18.4847 414.686C18.9393 414.331 19.4847 414.153 20.1211 414.153C20.7575 414.153 21.3015 414.331 21.7532 414.686C22.2077 415.038 22.5543 415.55 22.793 416.22C23.0344 416.888 23.1552 417.693 23.1552 418.636C23.1552 419.585 23.0359 420.395 22.7972 421.065C22.5586 421.733 22.2134 422.243 21.7617 422.595C21.31 422.945 20.7631 423.119 20.1211 423.119ZM20.1211 422.182C20.7575 422.182 21.2518 421.875 21.604 421.261C21.9563 420.648 22.1325 419.773 22.1325 418.636C22.1325 417.881 22.0515 417.237 21.8896 416.706C21.7305 416.175 21.5004 415.77 21.1992 415.491C20.9009 415.213 20.5415 415.074 20.1211 415.074C19.4904 415.074 18.9975 415.385 18.6424 416.007C18.2873 416.626 18.1097 417.503 18.1097 418.636C18.1097 419.392 18.1893 420.034 18.3484 420.562C18.5075 421.091 18.7362 421.493 19.0344 421.768C19.3356 422.044 19.6978 422.182 20.1211 422.182ZM27.6211 423.119C26.979 423.119 26.4322 422.945 25.9805 422.595C25.5288 422.243 25.1836 421.733 24.945 421.065C24.7063 420.395 24.587 419.585 24.587 418.636C24.587 417.693 24.7063 416.888 24.945 416.22C25.1864 415.55 25.533 415.038 25.9847 414.686C26.4393 414.331 26.9847 414.153 27.6211 414.153C28.2575 414.153 28.8015 414.331 29.2532 414.686C29.7077 415.038 30.0543 415.55 30.293 416.22C30.5344 416.888 30.6552 417.693 30.6552 418.636C30.6552 419.585 30.5359 420.395 30.2972 421.065C30.0586 421.733 29.7134 422.243 29.2617 422.595C28.81 422.945 28.2631 423.119 27.6211 423.119ZM27.6211 422.182C28.2575 422.182 28.7518 421.875 29.104 421.261C29.4563 420.648 29.6325 419.773 29.6325 418.636C29.6325 417.881 29.5515 417.237 29.3896 416.706C29.2305 416.175 29.0004 415.77 28.6992 415.491C28.4009 415.213 28.0415 415.074 27.6211 415.074C26.9904 415.074 26.4975 415.385 26.1424 416.007C25.7873 416.626 25.6097 417.503 25.6097 418.636C25.6097 419.392 25.6893 420.034 25.8484 420.562C26.0075 421.091 26.2362 421.493 26.5344 421.768C26.8356 422.044 27.1978 422.182 27.6211 422.182Z" fill="#9CA3AF"/>
<line y1="502" x2="200" y2="502" stroke="#1F2937" stroke-width="2"/>
<path d="M3.97159 490.273V499H2.91477V491.381H2.86364L0.732955 492.795V491.722L2.91477 490.273H3.97159ZM6.75426 499L10.6577 491.278V491.21H6.15767V490.273H11.7486V491.261L7.86222 499H6.75426ZM13.6768 497.884C13.4666 497.884 13.2862 497.808 13.1357 497.658C12.9851 497.507 12.9098 497.327 12.9098 497.116C12.9098 496.906 12.9851 496.726 13.1357 496.575C13.2862 496.425 13.4666 496.349 13.6768 496.349C13.8871 496.349 14.0675 496.425 14.218 496.575C14.3686 496.726 14.4439 496.906 14.4439 497.116C14.4439 497.256 14.4084 497.384 14.3374 497.5C14.2692 497.616 14.1768 497.71 14.0604 497.781C13.9467 497.849 13.8189 497.884 13.6768 497.884ZM13.6768 493.469C13.4666 493.469 13.2862 493.393 13.1357 493.243C12.9851 493.092 12.9098 492.912 12.9098 492.702C12.9098 492.491 12.9851 492.311 13.1357 492.161C13.2862 492.01 13.4666 491.935 13.6768 491.935C13.8871 491.935 14.0675 492.01 14.218 492.161C14.3686 492.311 14.4439 492.491 14.4439 492.702C14.4439 492.841 14.4084 492.969 14.3374 493.085C14.2692 493.202 14.1768 493.295 14.0604 493.366C13.9467 493.435 13.8189 493.469 13.6768 493.469ZM19.0781 499.119C18.4361 499.119 17.8892 498.945 17.4375 498.595C16.9858 498.243 16.6406 497.733 16.402 497.065C16.1634 496.395 16.044 495.585 16.044 494.636C16.044 493.693 16.1634 492.888 16.402 492.22C16.6435 491.55 16.9901 491.038 17.4418 490.686C17.8963 490.331 18.4418 490.153 19.0781 490.153C19.7145 490.153 20.2585 490.331 20.7102 490.686C21.1648 491.038 21.5114 491.55 21.75 492.22C21.9915 492.888 22.1122 493.693 22.1122 494.636C22.1122 495.585 21.9929 496.395 21.7543 497.065C21.5156 497.733 21.1705 498.243 20.7188 498.595C20.267 498.945 19.7202 499.119 19.0781 499.119ZM19.0781 498.182C19.7145 498.182 20.2088 497.875 20.5611 497.261C20.9134 496.648 21.0895 495.773 21.0895 494.636C21.0895 493.881 21.0085 493.237 20.8466 492.706C20.6875 492.175 20.4574 491.77 20.1562 491.491C19.858 491.213 19.4986 491.074 19.0781 491.074C18.4474 491.074 17.9545 491.385 17.5994 492.007C17.2443 492.626 17.0668 493.503 17.0668 494.636C17.0668 495.392 17.1463 496.034 17.3054 496.562C17.4645 497.091 17.6932 497.493 17.9915 497.768C18.2926 498.044 18.6548 498.182 19.0781 498.182ZM26.5781 499.119C25.9361 499.119 25.3892 498.945 24.9375 498.595C24.4858 498.243 24.1406 497.733 23.902 497.065C23.6634 496.395 23.544 495.585 23.544 494.636C23.544 493.693 23.6634 492.888 23.902 492.22C24.1435 491.55 24.4901 491.038 24.9418 490.686C25.3963 490.331 25.9418 490.153 26.5781 490.153C27.2145 490.153 27.7585 490.331 28.2102 490.686C28.6648 491.038 29.0114 491.55 29.25 492.22C29.4915 492.888 29.6122 493.693 29.6122 494.636C29.6122 495.585 29.4929 496.395 29.2543 497.065C29.0156 497.733 28.6705 498.243 28.2188 498.595C27.767 498.945 27.2202 499.119 26.5781 499.119ZM26.5781 498.182C27.2145 498.182 27.7088 497.875 28.0611 497.261C28.4134 496.648 28.5895 495.773 28.5895 494.636C28.5895 493.881 28.5085 493.237 28.3466 492.706C28.1875 492.175 27.9574 491.77 27.6562 491.491C27.358 491.213 26.9986 491.074 26.5781 491.074C25.9474 491.074 25.4545 491.385 25.0994 492.007C24.7443 492.626 24.5668 493.503 24.5668 494.636C24.5668 495.392 24.6463 496.034 24.8054 496.562C24.9645 497.091 25.1932 497.493 25.4915 497.768C25.7926 498.044 26.1548 498.182 26.5781 498.182Z" fill="#9CA3AF"/>
<line y1="578" x2="200" y2="578" stroke="#1F2937" stroke-width="2"/>
<path d="M3.97159 566.273V575H2.91477V567.381H2.86364L0.732955 568.795V567.722L2.91477 566.273H3.97159ZM9.27699 575.119C8.69176 575.119 8.17472 575.016 7.72585 574.808C7.27983 574.598 6.93182 574.31 6.68182 573.943C6.43182 573.574 6.30824 573.153 6.31108 572.682C6.30824 572.312 6.38068 571.972 6.52841 571.659C6.67614 571.344 6.87784 571.081 7.13352 570.871C7.39205 570.658 7.6804 570.523 7.99858 570.466V570.415C7.58097 570.307 7.24858 570.072 7.00142 569.712C6.75426 569.348 6.6321 568.935 6.63494 568.472C6.6321 568.028 6.74432 567.632 6.97159 567.283C7.19886 566.933 7.51136 566.658 7.90909 566.456C8.30966 566.254 8.76563 566.153 9.27699 566.153C9.78267 566.153 10.2344 566.254 10.6321 566.456C11.0298 566.658 11.3423 566.933 11.5696 567.283C11.7997 567.632 11.9162 568.028 11.919 568.472C11.9162 568.935 11.7898 569.348 11.5398 569.712C11.2926 570.072 10.9645 570.307 10.5554 570.415V570.466C10.8707 570.523 11.1548 570.658 11.4077 570.871C11.6605 571.081 11.8622 571.344 12.0128 571.659C12.1634 571.972 12.2401 572.312 12.2429 572.682C12.2401 573.153 12.1122 573.574 11.8594 573.943C11.6094 574.31 11.2614 574.598 10.8153 574.808C10.3722 575.016 9.85938 575.119 9.27699 575.119ZM9.27699 574.182C9.67188 574.182 10.0128 574.118 10.2997 573.99C10.5866 573.862 10.8082 573.682 10.9645 573.449C11.1207 573.216 11.2003 572.943 11.2031 572.631C11.2003 572.301 11.1151 572.01 10.9474 571.757C10.7798 571.504 10.5511 571.305 10.2614 571.161C9.97443 571.016 9.64631 570.943 9.27699 570.943C8.90483 570.943 8.57244 571.016 8.27983 571.161C7.99006 571.305 7.76136 571.504 7.59375 571.757C7.42898 572.01 7.34801 572.301 7.35085 572.631C7.34801 572.943 7.4233 573.216 7.5767 573.449C7.73295 573.682 7.95597 573.862 8.24574 573.99C8.53551 574.118 8.87926 574.182 9.27699 574.182ZM9.27699 570.04C9.58949 570.04 9.86648 569.977 10.108 569.852C10.3523 569.727 10.544 569.553 10.6832 569.328C10.8224 569.104 10.8935 568.841 10.8963 568.54C10.8935 568.244 10.8239 567.987 10.6875 567.768C10.5511 567.547 10.3622 567.376 10.1207 567.257C9.87926 567.135 9.59801 567.074 9.27699 567.074C8.95028 567.074 8.66477 567.135 8.42045 567.257C8.17614 567.376 7.98722 567.547 7.85369 567.768C7.72017 567.987 7.65483 568.244 7.65767 568.54C7.65483 568.841 7.72159 569.104 7.85795 569.328C7.99716 569.553 8.18892 569.727 8.43324 569.852C8.67756 569.977 8.95881 570.04 9.27699 570.04ZM14.6261 573.884C14.4158 573.884 14.2354 573.808 14.0849 573.658C13.9343 573.507 13.859 573.327 13.859 573.116C13.859 572.906 13.9343 572.726 14.0849 572.575C14.2354 572.425 14.4158 572.349 14.6261 572.349C14.8363 572.349 15.0167 572.425 15.1673 572.575C15.3178 572.726 15.3931 572.906 15.3931 573.116C15.3931 573.256 15.3576 573.384 15.2866 573.5C15.2184 573.616 15.1261 573.71 15.0096 573.781C14.896 573.849 14.7681 573.884 14.6261 573.884ZM14.6261 569.469C14.4158 569.469 14.2354 569.393 14.0849 569.243C13.9343 569.092 13.859 568.912 13.859 568.702C13.859 568.491 13.9343 568.311 14.0849 568.161C14.2354 568.01 14.4158 567.935 14.6261 567.935C14.8363 567.935 15.0167 568.01 15.1673 568.161C15.3178 568.311 15.3931 568.491 15.3931 568.702C15.3931 568.841 15.3576 568.969 15.2866 569.085C15.2184 569.202 15.1261 569.295 15.0096 569.366C14.896 569.435 14.7681 569.469 14.6261 569.469ZM20.0273 575.119C19.3853 575.119 18.8384 574.945 18.3867 574.595C17.935 574.243 17.5898 573.733 17.3512 573.065C17.1126 572.395 16.9933 571.585 16.9933 570.636C16.9933 569.693 17.1126 568.888 17.3512 568.22C17.5927 567.55 17.9393 567.038 18.391 566.686C18.8455 566.331 19.391 566.153 20.0273 566.153C20.6637 566.153 21.2077 566.331 21.6594 566.686C22.114 567.038 22.4606 567.55 22.6992 568.22C22.9407 568.888 23.0614 569.693 23.0614 570.636C23.0614 571.585 22.9421 572.395 22.7035 573.065C22.4648 573.733 22.1197 574.243 21.668 574.595C21.2163 574.945 20.6694 575.119 20.0273 575.119ZM20.0273 574.182C20.6637 574.182 21.158 573.875 21.5103 573.261C21.8626 572.648 22.0387 571.773 22.0387 570.636C22.0387 569.881 21.9577 569.237 21.7958 568.706C21.6367 568.175 21.4066 567.77 21.1055 567.491C20.8072 567.213 20.4478 567.074 20.0273 567.074C19.3967 567.074 18.9038 567.385 18.5487 568.007C18.1935 568.626 18.016 569.503 18.016 570.636C18.016 571.392 18.0955 572.034 18.2546 572.562C18.4137 573.091 18.6424 573.493 18.9407 573.768C19.2418 574.044 19.604 574.182 20.0273 574.182ZM27.5273 575.119C26.8853 575.119 26.3384 574.945 25.8867 574.595C25.435 574.243 25.0898 573.733 24.8512 573.065C24.6126 572.395 24.4933 571.585 24.4933 570.636C24.4933 569.693 24.6126 568.888 24.8512 568.22C25.0927 567.55 25.4393 567.038 25.891 566.686C26.3455 566.331 26.891 566.153 27.5273 566.153C28.1637 566.153 28.7077 566.331 29.1594 566.686C29.614 567.038 29.9606 567.55 30.1992 568.22C30.4407 568.888 30.5614 569.693 30.5614 570.636C30.5614 571.585 30.4421 572.395 30.2035 573.065C29.9648 573.733 29.6197 574.243 29.168 574.595C28.7163 574.945 28.1694 575.119 27.5273 575.119ZM27.5273 574.182C28.1637 574.182 28.658 573.875 29.0103 573.261C29.3626 572.648 29.5387 571.773 29.5387 570.636C29.5387 569.881 29.4577 569.237 29.2958 568.706C29.1367 568.175 28.9066 567.77 28.6055 567.491C28.3072 567.213 27.9478 567.074 27.5273 567.074C26.8967 567.074 26.4038 567.385 26.0487 568.007C25.6935 568.626 25.516 569.503 25.516 570.636C25.516 571.392 25.5955 572.034 25.7546 572.562C25.9137 573.091 26.1424 573.493 26.4407 573.768C26.7418 574.044 27.104 574.182 27.5273 574.182Z" fill="#9CA3AF"/>
<line y1="654" x2="200" y2="654" stroke="#1F2937" stroke-width="2"/>
<path d="M3.97159 642.273V651H2.91477V643.381H2.86364L0.732955 644.795V643.722L2.91477 642.273H3.97159ZM9.25994 642.153C9.6179 642.156 9.97585 642.224 10.3338 642.358C10.6918 642.491 11.0185 642.713 11.3139 643.023C11.6094 643.33 11.8466 643.749 12.0256 644.28C12.2045 644.811 12.294 645.477 12.294 646.278C12.294 647.054 12.2202 647.743 12.0724 648.345C11.9276 648.945 11.7173 649.45 11.4418 649.862C11.169 650.274 10.8366 650.587 10.4446 650.8C10.0554 651.013 9.61506 651.119 9.12358 651.119C8.63494 651.119 8.19886 651.023 7.81534 650.83C7.43466 650.634 7.12216 650.362 6.87784 650.016C6.63636 649.666 6.48153 649.261 6.41335 648.801H7.45312C7.54688 649.202 7.73295 649.533 8.01136 649.794C8.29261 650.053 8.66335 650.182 9.12358 650.182C9.79688 650.182 10.3281 649.888 10.7173 649.3C11.1094 648.712 11.3054 647.881 11.3054 646.807H11.2372C11.0781 647.045 10.8892 647.251 10.6705 647.425C10.4517 647.598 10.2088 647.732 9.94176 647.825C9.67472 647.919 9.39063 647.966 9.08949 647.966C8.58949 647.966 8.13068 647.842 7.71307 647.595C7.2983 647.345 6.96591 647.003 6.71591 646.568C6.46875 646.131 6.34517 645.631 6.34517 645.068C6.34517 644.534 6.46449 644.045 6.70312 643.602C6.9446 643.156 7.28267 642.801 7.71733 642.537C8.15483 642.273 8.66903 642.145 9.25994 642.153ZM9.25994 643.091C8.90199 643.091 8.57955 643.18 8.29261 643.359C8.00852 643.536 7.78267 643.774 7.61506 644.075C7.45028 644.374 7.3679 644.705 7.3679 645.068C7.3679 645.432 7.44744 645.763 7.60653 646.061C7.76847 646.357 7.98864 646.592 8.26705 646.768C8.5483 646.942 8.8679 647.028 9.22585 647.028C9.49574 647.028 9.74716 646.976 9.98011 646.871C10.2131 646.763 10.4162 646.616 10.5895 646.432C10.7656 646.244 10.9034 646.033 11.0028 645.797C11.1023 645.558 11.152 645.31 11.152 645.051C11.152 644.71 11.0696 644.391 10.9048 644.092C10.7429 643.794 10.5185 643.553 10.2315 643.368C9.94744 643.183 9.62358 643.091 9.25994 643.091ZM14.7198 649.884C14.5096 649.884 14.3292 649.808 14.1786 649.658C14.0281 649.507 13.9528 649.327 13.9528 649.116C13.9528 648.906 14.0281 648.726 14.1786 648.575C14.3292 648.425 14.5096 648.349 14.7198 648.349C14.93 648.349 15.1104 648.425 15.261 648.575C15.4116 648.726 15.4869 648.906 15.4869 649.116C15.4869 649.256 15.4513 649.384 15.3803 649.5C15.3121 649.616 15.2198 649.71 15.1033 649.781C14.9897 649.849 14.8619 649.884 14.7198 649.884ZM14.7198 645.469C14.5096 645.469 14.3292 645.393 14.1786 645.243C14.0281 645.092 13.9528 644.912 13.9528 644.702C13.9528 644.491 14.0281 644.311 14.1786 644.161C14.3292 644.01 14.5096 643.935 14.7198 643.935C14.93 643.935 15.1104 644.01 15.261 644.161C15.4116 644.311 15.4869 644.491 15.4869 644.702C15.4869 644.841 15.4513 644.969 15.3803 645.085C15.3121 645.202 15.2198 645.295 15.1033 645.366C14.9897 645.435 14.8619 645.469 14.7198 645.469ZM20.1211 651.119C19.479 651.119 18.9322 650.945 18.4805 650.595C18.0288 650.243 17.6836 649.733 17.445 649.065C17.2063 648.395 17.087 647.585 17.087 646.636C17.087 645.693 17.2063 644.888 17.445 644.22C17.6864 643.55 18.033 643.038 18.4847 642.686C18.9393 642.331 19.4847 642.153 20.1211 642.153C20.7575 642.153 21.3015 642.331 21.7532 642.686C22.2077 643.038 22.5543 643.55 22.793 644.22C23.0344 644.888 23.1552 645.693 23.1552 646.636C23.1552 647.585 23.0359 648.395 22.7972 649.065C22.5586 649.733 22.2134 650.243 21.7617 650.595C21.31 650.945 20.7631 651.119 20.1211 651.119ZM20.1211 650.182C20.7575 650.182 21.2518 649.875 21.604 649.261C21.9563 648.648 22.1325 647.773 22.1325 646.636C22.1325 645.881 22.0515 645.237 21.8896 644.706C21.7305 644.175 21.5004 643.77 21.1992 643.491C20.9009 643.213 20.5415 643.074 20.1211 643.074C19.4904 643.074 18.9975 643.385 18.6424 644.007C18.2873 644.626 18.1097 645.503 18.1097 646.636C18.1097 647.392 18.1893 648.034 18.3484 648.562C18.5075 649.091 18.7362 649.493 19.0344 649.768C19.3356 650.044 19.6978 650.182 20.1211 650.182ZM27.6211 651.119C26.979 651.119 26.4322 650.945 25.9805 650.595C25.5288 650.243 25.1836 649.733 24.945 649.065C24.7063 648.395 24.587 647.585 24.587 646.636C24.587 645.693 24.7063 644.888 24.945 644.22C25.1864 643.55 25.533 643.038 25.9847 642.686C26.4393 642.331 26.9847 642.153 27.6211 642.153C28.2575 642.153 28.8015 642.331 29.2532 642.686C29.7077 643.038 30.0543 643.55 30.293 644.22C30.5344 644.888 30.6552 645.693 30.6552 646.636C30.6552 647.585 30.5359 648.395 30.2972 649.065C30.0586 649.733 29.7134 650.243 29.2617 650.595C28.81 650.945 28.2631 651.119 27.6211 651.119ZM27.6211 650.182C28.2575 650.182 28.7518 649.875 29.104 649.261C29.4563 648.648 29.6325 647.773 29.6325 646.636C29.6325 645.881 29.5515 645.237 29.3896 644.706C29.2305 644.175 29.0004 643.77 28.6992 643.491C28.4009 643.213 28.0415 643.074 27.6211 643.074C26.9904 643.074 26.4975 643.385 26.1424 644.007C25.7873 644.626 25.6097 645.503 25.6097 646.636C25.6097 647.392 25.6893 648.034 25.8484 648.562C26.0075 649.091 26.2362 649.493 26.5344 649.768C26.8356 650.044 27.1978 650.182 27.6211 650.182Z" fill="#9CA3AF"/>
<line y1="730" x2="200" y2="730" stroke="#1F2937" stroke-width="2"/>
<path d="M0.903409 727V726.233L3.78409 723.08C4.12216 722.71 4.40057 722.389 4.61932 722.116C4.83807 721.841 5 721.582 5.10511 721.341C5.21307 721.097 5.26705 720.841 5.26705 720.574C5.26705 720.267 5.19318 720.001 5.04545 719.777C4.90057 719.553 4.7017 719.379 4.44886 719.257C4.19602 719.135 3.91193 719.074 3.59659 719.074C3.26136 719.074 2.96875 719.143 2.71875 719.283C2.47159 719.419 2.27983 719.611 2.14347 719.858C2.00994 720.105 1.94318 720.395 1.94318 720.727H0.9375C0.9375 720.216 1.0554 719.767 1.29119 719.381C1.52699 718.994 1.84801 718.693 2.25426 718.477C2.66335 718.261 3.12216 718.153 3.63068 718.153C4.14205 718.153 4.59517 718.261 4.99006 718.477C5.38494 718.693 5.6946 718.984 5.91903 719.351C6.14347 719.717 6.25568 720.125 6.25568 720.574C6.25568 720.895 6.19744 721.209 6.08097 721.516C5.96733 721.82 5.76847 722.159 5.48438 722.534C5.20312 722.906 4.8125 723.361 4.3125 723.898L2.35227 725.994V726.062H6.40909V727H0.903409ZM11.0156 727.119C10.3736 727.119 9.8267 726.945 9.375 726.595C8.9233 726.243 8.57813 725.733 8.33949 725.065C8.10085 724.395 7.98153 723.585 7.98153 722.636C7.98153 721.693 8.10085 720.888 8.33949 720.22C8.58097 719.55 8.92756 719.038 9.37926 718.686C9.83381 718.331 10.3793 718.153 11.0156 718.153C11.652 718.153 12.196 718.331 12.6477 718.686C13.1023 719.038 13.4489 719.55 13.6875 720.22C13.929 720.888 14.0497 721.693 14.0497 722.636C14.0497 723.585 13.9304 724.395 13.6918 725.065C13.4531 725.733 13.108 726.243 12.6562 726.595C12.2045 726.945 11.6577 727.119 11.0156 727.119ZM11.0156 726.182C11.652 726.182 12.1463 725.875 12.4986 725.261C12.8509 724.648 13.027 723.773 13.027 722.636C13.027 721.881 12.946 721.237 12.7841 720.706C12.625 720.175 12.3949 719.77 12.0938 719.491C11.7955 719.213 11.4361 719.074 11.0156 719.074C10.3849 719.074 9.89205 719.385 9.53693 720.007C9.18182 720.626 9.00426 721.503 9.00426 722.636C9.00426 723.392 9.08381 724.034 9.2429 724.562C9.40199 725.091 9.63068 725.493 9.92898 725.768C10.2301 726.044 10.5923 726.182 11.0156 726.182ZM16.419 725.884C16.2088 725.884 16.0284 725.808 15.8778 725.658C15.7273 725.507 15.652 725.327 15.652 725.116C15.652 724.906 15.7273 724.726 15.8778 724.575C16.0284 724.425 16.2088 724.349 16.419 724.349C16.6293 724.349 16.8097 724.425 16.9602 724.575C17.1108 724.726 17.1861 724.906 17.1861 725.116C17.1861 725.256 17.1506 725.384 17.0795 725.5C17.0114 725.616 16.919 725.71 16.8026 725.781C16.6889 725.849 16.5611 725.884 16.419 725.884ZM16.419 721.469C16.2088 721.469 16.0284 721.393 15.8778 721.243C15.7273 721.092 15.652 720.912 15.652 720.702C15.652 720.491 15.7273 720.311 15.8778 720.161C16.0284 720.01 16.2088 719.935 16.419 719.935C16.6293 719.935 16.8097 720.01 16.9602 720.161C17.1108 720.311 17.1861 720.491 17.1861 720.702C17.1861 720.841 17.1506 720.969 17.0795 721.085C17.0114 721.202 16.919 721.295 16.8026 721.366C16.6889 721.435 16.5611 721.469 16.419 721.469ZM21.8203 727.119C21.1783 727.119 20.6314 726.945 20.1797 726.595C19.728 726.243 19.3828 725.733 19.1442 725.065C18.9055 724.395 18.7862 723.585 18.7862 722.636C18.7862 721.693 18.9055 720.888 19.1442 720.22C19.3857 719.55 19.7322 719.038 20.1839 718.686C20.6385 718.331 21.1839 718.153 21.8203 718.153C22.4567 718.153 23.0007 718.331 23.4524 718.686C23.907 719.038 24.2536 719.55 24.4922 720.22C24.7337 720.888 24.8544 721.693 24.8544 722.636C24.8544 723.585 24.7351 724.395 24.4964 725.065C24.2578 725.733 23.9126 726.243 23.4609 726.595C23.0092 726.945 22.4624 727.119 21.8203 727.119ZM21.8203 726.182C22.4567 726.182 22.951 725.875 23.3033 725.261C23.6555 724.648 23.8317 723.773 23.8317 722.636C23.8317 721.881 23.7507 721.237 23.5888 720.706C23.4297 720.175 23.1996 719.77 22.8984 719.491C22.6001 719.213 22.2408 719.074 21.8203 719.074C21.1896 719.074 20.6967 719.385 20.3416 720.007C19.9865 720.626 19.8089 721.503 19.8089 722.636C19.8089 723.392 19.8885 724.034 20.0476 724.562C20.2067 725.091 20.4354 725.493 20.7337 725.768C21.0348 726.044 21.397 726.182 21.8203 726.182ZM29.3203 727.119C28.6783 727.119 28.1314 726.945 27.6797 726.595C27.228 726.243 26.8828 725.733 26.6442 725.065C26.4055 724.395 26.2862 723.585 26.2862 722.636C26.2862 721.693 26.4055 720.888 26.6442 720.22C26.8857 719.55 27.2322 719.038 27.6839 718.686C28.1385 718.331 28.6839 718.153 29.3203 718.153C29.9567 718.153 30.5007 718.331 30.9524 718.686C31.407 719.038 31.7536 719.55 31.9922 720.22C32.2337 720.888 32.3544 721.693 32.3544 722.636C32.3544 723.585 32.2351 724.395 31.9964 725.065C31.7578 725.733 31.4126 726.243 30.9609 726.595C30.5092 726.945 29.9624 727.119 29.3203 727.119ZM29.3203 726.182C29.9567 726.182 30.451 725.875 30.8033 725.261C31.1555 724.648 31.3317 723.773 31.3317 722.636C31.3317 721.881 31.2507 721.237 31.0888 720.706C30.9297 720.175 30.6996 719.77 30.3984 719.491C30.1001 719.213 29.7408 719.074 29.3203 719.074C28.6896 719.074 28.1967 719.385 27.8416 720.007C27.4865 720.626 27.3089 721.503 27.3089 722.636C27.3089 723.392 27.3885 724.034 27.5476 724.562C27.7067 725.091 27.9354 725.493 28.2337 725.768C28.5348 726.044 28.897 726.182 29.3203 726.182Z" fill="#9CA3AF"/>
<line y1="806" x2="200" y2="806" stroke="#1F2937" stroke-width="2"/>
<path d="M0.903409 803V802.233L3.78409 799.08C4.12216 798.71 4.40057 798.389 4.61932 798.116C4.83807 797.841 5 797.582 5.10511 797.341C5.21307 797.097 5.26705 796.841 5.26705 796.574C5.26705 796.267 5.19318 796.001 5.04545 795.777C4.90057 795.553 4.7017 795.379 4.44886 795.257C4.19602 795.135 3.91193 795.074 3.59659 795.074C3.26136 795.074 2.96875 795.143 2.71875 795.283C2.47159 795.419 2.27983 795.611 2.14347 795.858C2.00994 796.105 1.94318 796.395 1.94318 796.727H0.9375C0.9375 796.216 1.0554 795.767 1.29119 795.381C1.52699 794.994 1.84801 794.693 2.25426 794.477C2.66335 794.261 3.12216 794.153 3.63068 794.153C4.14205 794.153 4.59517 794.261 4.99006 794.477C5.38494 794.693 5.6946 794.984 5.91903 795.351C6.14347 795.717 6.25568 796.125 6.25568 796.574C6.25568 796.895 6.19744 797.209 6.08097 797.516C5.96733 797.82 5.76847 798.159 5.48438 798.534C5.20312 798.906 4.8125 799.361 4.3125 799.898L2.35227 801.994V802.062H6.40909V803H0.903409ZM11.2372 794.273V803H10.1804V795.381H10.1293L7.99858 796.795V795.722L10.1804 794.273H11.2372ZM14.4972 801.884C14.2869 801.884 14.1065 801.808 13.956 801.658C13.8054 801.507 13.7301 801.327 13.7301 801.116C13.7301 800.906 13.8054 800.726 13.956 800.575C14.1065 800.425 14.2869 800.349 14.4972 800.349C14.7074 800.349 14.8878 800.425 15.0384 800.575C15.1889 800.726 15.2642 800.906 15.2642 801.116C15.2642 801.256 15.2287 801.384 15.1577 801.5C15.0895 801.616 14.9972 801.71 14.8807 801.781C14.767 801.849 14.6392 801.884 14.4972 801.884ZM14.4972 797.469C14.2869 797.469 14.1065 797.393 13.956 797.243C13.8054 797.092 13.7301 796.912 13.7301 796.702C13.7301 796.491 13.8054 796.311 13.956 796.161C14.1065 796.01 14.2869 795.935 14.4972 795.935C14.7074 795.935 14.8878 796.01 15.0384 796.161C15.1889 796.311 15.2642 796.491 15.2642 796.702C15.2642 796.841 15.2287 796.969 15.1577 797.085C15.0895 797.202 14.9972 797.295 14.8807 797.366C14.767 797.435 14.6392 797.469 14.4972 797.469ZM19.8984 803.119C19.2564 803.119 18.7095 802.945 18.2578 802.595C17.8061 802.243 17.4609 801.733 17.2223 801.065C16.9837 800.395 16.8643 799.585 16.8643 798.636C16.8643 797.693 16.9837 796.888 17.2223 796.22C17.4638 795.55 17.8104 795.038 18.2621 794.686C18.7166 794.331 19.2621 794.153 19.8984 794.153C20.5348 794.153 21.0788 794.331 21.5305 794.686C21.9851 795.038 22.3317 795.55 22.5703 796.22C22.8118 796.888 22.9325 797.693 22.9325 798.636C22.9325 799.585 22.8132 800.395 22.5746 801.065C22.3359 801.733 21.9908 802.243 21.5391 802.595C21.0874 802.945 20.5405 803.119 19.8984 803.119ZM19.8984 802.182C20.5348 802.182 21.0291 801.875 21.3814 801.261C21.7337 800.648 21.9098 799.773 21.9098 798.636C21.9098 797.881 21.8288 797.237 21.6669 796.706C21.5078 796.175 21.2777 795.77 20.9766 795.491C20.6783 795.213 20.3189 795.074 19.8984 795.074C19.2678 795.074 18.7749 795.385 18.4197 796.007C18.0646 796.626 17.8871 797.503 17.8871 798.636C17.8871 799.392 17.9666 800.034 18.1257 800.562C18.2848 801.091 18.5135 801.493 18.8118 801.768C19.1129 802.044 19.4751 802.182 19.8984 802.182ZM27.3984 803.119C26.7564 803.119 26.2095 802.945 25.7578 802.595C25.3061 802.243 24.9609 801.733 24.7223 801.065C24.4837 800.395 24.3643 799.585 24.3643 798.636C24.3643 797.693 24.4837 796.888 24.7223 796.22C24.9638 795.55 25.3104 795.038 25.7621 794.686C26.2166 794.331 26.7621 794.153 27.3984 794.153C28.0348 794.153 28.5788 794.331 29.0305 794.686C29.4851 795.038 29.8317 795.55 30.0703 796.22C30.3118 796.888 30.4325 797.693 30.4325 798.636C30.4325 799.585 30.3132 800.395 30.0746 801.065C29.8359 801.733 29.4908 802.243 29.0391 802.595C28.5874 802.945 28.0405 803.119 27.3984 803.119ZM27.3984 802.182C28.0348 802.182 28.5291 801.875 28.8814 801.261C29.2337 800.648 29.4098 799.773 29.4098 798.636C29.4098 797.881 29.3288 797.237 29.1669 796.706C29.0078 796.175 28.7777 795.77 28.4766 795.491C28.1783 795.213 27.8189 795.074 27.3984 795.074C26.7678 795.074 26.2749 795.385 25.9197 796.007C25.5646 796.626 25.3871 797.503 25.3871 798.636C25.3871 799.392 25.4666 800.034 25.6257 800.562C25.7848 801.091 26.0135 801.493 26.3118 801.768C26.6129 802.044 26.9751 802.182 27.3984 802.182Z" fill="#9CA3AF"/>
</svg>
