<svg width="661" height="352" viewBox="0 0 661 352" fill="none" xmlns="http://www.w3.org/2000/svg">
<g filter="url(#filter0_f_5_2)">
<path d="M22 274C22 274 62 330 123 330C184 330 183 274 262 274C341 274 344 330 409 330C474 330 494 274 539 274C584 274 639 330 639 330" stroke="#0045AC" stroke-width="40" stroke-linecap="round"/>
</g>
<g filter="url(#filter1_f_5_2)">
<path d="M22 246C22 246 62 302 123 302C184 302 183 246 262 246C341 246 344 302 409 302C474 302 494 246 539 246C584 246 639 302 639 302" stroke="#0052CC" stroke-width="40" stroke-linecap="round"/>
</g>
<g filter="url(#filter2_f_5_2)">
<path d="M22 218C22 218 62 274 123 274C184 274 183 218 262 218C341 218 344 274 409 274C474 274 494 218 539 218C584 218 639 274 639 274" stroke="#005BE2" stroke-width="40" stroke-linecap="round"/>
</g>
<g filter="url(#filter3_f_5_2)">
<path d="M22 190C22 190 62 246 123 246C184 246 183 190 262 190C341 190 344 246 409 246C474 246 494 190 539 190C584 190 639 246 639 246" stroke="#0066FF" stroke-width="40" stroke-linecap="round"/>
</g>
<g filter="url(#filter4_f_5_2)">
<path d="M22 162C22 162 62 218 123 218C184 218 183 162 262 162C341 162 344 218 409 218C474 218 494 162 539 162C584 162 639 218 639 218" stroke="#2B80FF" stroke-width="40" stroke-linecap="round"/>
</g>
<g filter="url(#filter5_f_5_2)">
<path d="M22 134C22 134 62 190 123 190C184 190 183 134 262 134C341 134 344 190 409 190C474 190 494 134 539 134C584 134 639 190 639 190" stroke="#3E8BFF" stroke-width="40" stroke-linecap="round"/>
</g>
<g filter="url(#filter6_f_5_2)">
<path d="M22 106C22 106 62 162 123 162C184 162 183 106 262 106C341 106 344 162 409 162C474 162 494 106 539 106C584 106 639 162 639 162" stroke="#589BFF" stroke-width="40" stroke-linecap="round"/>
</g>
<g filter="url(#filter7_f_5_2)">
<path d="M22 78C22 78 62 134 123 134C184 134 183 78 262 78C341 78 344 134 409 134C474 134 494 78 539 78C584 78 639 134 639 134" stroke="#79AFFF" stroke-width="40" stroke-linecap="round"/>
</g>
<g filter="url(#filter8_f_5_2)">
<path d="M22 50C22 50 62 106 123 106C184 106 183 50 262 50C341 50 344 106 409 106C474 106 494 50 539 50C584 50 639 106 639 106" stroke="#91BDFF" stroke-width="40" stroke-linecap="round"/>
</g>
<g filter="url(#filter9_f_5_2)">
<path d="M22 22C22 22 62 78 123 78C184 78 183 22 262 22C341 22 344 78 409 78C474 78 494 22 539 22C584 22 639 78 639 78" stroke="#B1D0FF" stroke-width="40" stroke-linecap="round"/>
</g>
<defs>
<filter id="filter0_f_5_2" x="-0.0015564" y="251.998" width="661.002" height="100.002" filterUnits="userSpaceOnUse" color-interpolation-filters="sRGB">
<feFlood flood-opacity="0" result="BackgroundImageFix"/>
<feBlend mode="normal" in="SourceGraphic" in2="BackgroundImageFix" result="shape"/>
<feGaussianBlur stdDeviation="1" result="effect1_foregroundBlur_5_2"/>
</filter>
<filter id="filter1_f_5_2" x="-0.0015564" y="223.998" width="661.002" height="100.002" filterUnits="userSpaceOnUse" color-interpolation-filters="sRGB">
<feFlood flood-opacity="0" result="BackgroundImageFix"/>
<feBlend mode="normal" in="SourceGraphic" in2="BackgroundImageFix" result="shape"/>
<feGaussianBlur stdDeviation="1" result="effect1_foregroundBlur_5_2"/>
</filter>
<filter id="filter2_f_5_2" x="-0.0015564" y="195.998" width="661.002" height="100.002" filterUnits="userSpaceOnUse" color-interpolation-filters="sRGB">
<feFlood flood-opacity="0" result="BackgroundImageFix"/>
<feBlend mode="normal" in="SourceGraphic" in2="BackgroundImageFix" result="shape"/>
<feGaussianBlur stdDeviation="1" result="effect1_foregroundBlur_5_2"/>
</filter>
<filter id="filter3_f_5_2" x="-0.0015564" y="167.998" width="661.002" height="100.002" filterUnits="userSpaceOnUse" color-interpolation-filters="sRGB">
<feFlood flood-opacity="0" result="BackgroundImageFix"/>
<feBlend mode="normal" in="SourceGraphic" in2="BackgroundImageFix" result="shape"/>
<feGaussianBlur stdDeviation="1" result="effect1_foregroundBlur_5_2"/>
</filter>
<filter id="filter4_f_5_2" x="-0.0015564" y="139.998" width="661.002" height="100.002" filterUnits="userSpaceOnUse" color-interpolation-filters="sRGB">
<feFlood flood-opacity="0" result="BackgroundImageFix"/>
<feBlend mode="normal" in="SourceGraphic" in2="BackgroundImageFix" result="shape"/>
<feGaussianBlur stdDeviation="1" result="effect1_foregroundBlur_5_2"/>
</filter>
<filter id="filter5_f_5_2" x="-0.0015564" y="111.998" width="661.002" height="100.002" filterUnits="userSpaceOnUse" color-interpolation-filters="sRGB">
<feFlood flood-opacity="0" result="BackgroundImageFix"/>
<feBlend mode="normal" in="SourceGraphic" in2="BackgroundImageFix" result="shape"/>
<feGaussianBlur stdDeviation="1" result="effect1_foregroundBlur_5_2"/>
</filter>
<filter id="filter6_f_5_2" x="-0.0015564" y="83.9984" width="661.002" height="100.002" filterUnits="userSpaceOnUse" color-interpolation-filters="sRGB">
<feFlood flood-opacity="0" result="BackgroundImageFix"/>
<feBlend mode="normal" in="SourceGraphic" in2="BackgroundImageFix" result="shape"/>
<feGaussianBlur stdDeviation="1" result="effect1_foregroundBlur_5_2"/>
</filter>
<filter id="filter7_f_5_2" x="-0.0015564" y="55.9984" width="661.002" height="100.002" filterUnits="userSpaceOnUse" color-interpolation-filters="sRGB">
<feFlood flood-opacity="0" result="BackgroundImageFix"/>
<feBlend mode="normal" in="SourceGraphic" in2="BackgroundImageFix" result="shape"/>
<feGaussianBlur stdDeviation="1" result="effect1_foregroundBlur_5_2"/>
</filter>
<filter id="filter8_f_5_2" x="-0.0015564" y="27.9984" width="661.002" height="100.002" filterUnits="userSpaceOnUse" color-interpolation-filters="sRGB">
<feFlood flood-opacity="0" result="BackgroundImageFix"/>
<feBlend mode="normal" in="SourceGraphic" in2="BackgroundImageFix" result="shape"/>
<feGaussianBlur stdDeviation="1" result="effect1_foregroundBlur_5_2"/>
</filter>
<filter id="filter9_f_5_2" x="-0.0015564" y="-0.00158691" width="661.002" height="100.002" filterUnits="userSpaceOnUse" color-interpolation-filters="sRGB">
<feFlood flood-opacity="0" result="BackgroundImageFix"/>
<feBlend mode="normal" in="SourceGraphic" in2="BackgroundImageFix" result="shape"/>
<feGaussianBlur stdDeviation="1" result="effect1_foregroundBlur_5_2"/>
</filter>
</defs>
</svg>
